<svg width="500" height="500" viewBox="0 0 500 500" fill="none" xmlns="http://www.w3.org/2000/svg">
<path d="M250 482.51C377.87 482.51 481.53 424.249 481.53 352.38C481.53 280.511 377.87 222.25 250 222.25C122.129 222.25 18.47 280.511 18.47 352.38C18.47 424.249 122.129 482.51 250 482.51Z" fill="#F5F5F5"/>
<path d="M392.84 331.51C422.255 331.51 446.1 317.743 446.1 300.76C446.1 283.777 422.255 270.01 392.84 270.01C363.425 270.01 339.58 283.777 339.58 300.76C339.58 317.743 363.425 331.51 392.84 331.51Z" fill="#E6E6E6"/>
<path d="M417.61 388.43C417.569 388.333 417.515 388.243 417.45 388.16L417.31 387.98C417.259 387.912 417.202 387.848 417.14 387.79C417.087 387.726 417.027 387.669 416.96 387.62C416.756 387.435 416.531 387.274 416.29 387.14L190.78 256.94C189.622 256.353 188.343 256.047 187.045 256.047C185.747 256.047 184.468 256.353 183.31 256.94L72.74 320.77C72.58 320.87 72.43 320.95 72.3 321.05L72.15 321.17C71.9031 321.367 71.6903 321.604 71.52 321.87C71.4807 321.93 71.4472 321.994 71.42 322.06C71.3614 322.148 71.3207 322.246 71.3 322.35C71.2694 322.424 71.2492 322.501 71.24 322.58C71.2247 322.703 71.2247 322.827 71.24 322.95C71.2346 323.037 71.2346 323.123 71.24 323.21C71.256 323.309 71.2828 323.407 71.32 323.5C71.3477 323.598 71.388 323.692 71.44 323.78C71.7436 324.333 72.2025 324.785 72.76 325.08L298.27 455.28C298.964 455.661 299.718 455.918 300.5 456.04C301 456.119 301.504 456.162 302.01 456.17C302.512 456.166 303.014 456.126 303.51 456.05C303.676 456.034 303.841 456.001 304 455.95C304.463 455.844 304.916 455.693 305.35 455.5L305.75 455.28L416.31 391.45C417.71 390.63 418.15 389.46 417.61 388.43Z" fill="#E6E6E6"/>
<path d="M72.2899 384.85L204.51 461.24H221.65L294.49 419.19V409.29L162.27 332.91H145.13L72.2899 374.96V384.85Z" fill="#E6E6E6"/>
<path d="M294.49 408.41V398.52L165.95 324.3H148.81L75.97 366.35V376.25V378.72L204.51 452.94H221.65L294.49 410.89V408.41Z" fill="#E2FF96"/>
<path opacity="0.6" d="M294.49 408.41V398.52L165.95 324.3H148.81L75.97 366.35V376.25V378.72L204.51 452.94H221.65L294.49 410.89V408.41Z" fill="white"/>
<path opacity="0.15" d="M221.65 450.46L294.49 408.41V410.89L221.65 452.94V450.46Z" fill="black"/>
<path opacity="0.05" d="M75.97 376.25L204.51 450.46V452.94L75.97 378.72V376.25Z" fill="black"/>
<path opacity="0.1" d="M221.65 450.46H204.51V452.93H221.65V450.46Z" fill="black"/>
<path d="M75.97 376.25L204.51 450.46H221.65L294.49 408.41V398.52L165.95 324.3H148.81L75.97 366.35V376.25Z" fill="#E2FF96"/>
<path d="M75.97 376.25L204.51 450.46H221.65L294.49 408.41V398.52L165.95 324.3H148.81L75.97 366.35V376.25Z" fill="#E2FF96"/>
<path opacity="0.8" d="M75.97 376.25L204.51 450.46H221.65L294.49 408.41V398.52L165.95 324.3H148.81L75.97 366.35V376.25Z" fill="white"/>
<path opacity="0.2" d="M260.97 427.77L294.49 408.41V398.52L165.95 324.3H148.81L115.28 343.66L260.97 427.77Z" fill="#E2FF96"/>
<path d="M157.44 387.73L143.1 379.49L135.95 383.67L135.98 358.94L178.8 358.93L171.56 363.05L185.91 371.3L157.44 387.73Z" fill="#455A64"/>
<path d="M178.8 358.93L141.76 358.94L174.53 377.86L185.91 371.3L171.56 363.05L178.8 358.93Z" fill="#37474F"/>
<g clip-path="url(#clip0)">
<path d="M165.947 388.424L145 400.889L166.244 412.841L187.19 400.376L165.947 388.424ZM178.752 400.478L166.184 407.958L153.438 400.786L166.006 393.307L178.752 400.478Z" fill="#455A64"/>
<path d="M166.065 398.191L161.876 400.684L166.125 403.074L170.314 400.581L166.065 398.191Z" fill="#455A64"/>
<path d="M191.082 373.465L212.326 385.417L233.272 372.952L212.029 361L191.082 373.465ZM224.834 373.055L212.266 380.534L199.52 373.363L212.088 365.883L224.834 373.055Z" fill="#455A64"/>
<path d="M212.148 370.767L207.958 373.26L212.207 375.65L216.396 373.157L212.148 370.767Z" fill="#455A64"/>
<path d="M212.979 439.136L233.926 426.67L212.682 414.718L191.736 427.184L212.979 439.136ZM200.174 427.081L212.742 419.602L225.488 426.773L212.92 434.252L200.174 427.081Z" fill="#455A64"/>
<path d="M212.801 424.485L208.612 426.978L212.861 429.369L217.05 426.876L212.801 424.485Z" fill="#455A64"/>
<path d="M186.893 375.958L178.514 380.945L182.763 383.335L191.142 378.349L186.893 375.958Z" fill="#455A64"/>
<path d="M195.509 390.506L199.699 388.013L195.45 385.623L199.639 383.13L195.39 380.739L182.823 388.218L178.574 385.828L174.385 388.321L178.633 390.711L180.758 391.907L182.882 393.102L191.261 388.116L195.509 390.506Z" fill="#455A64"/>
<path d="M191.32 392.999L187.131 395.492L191.379 397.883L195.569 395.39L191.32 392.999Z" fill="#455A64"/>
<path d="M208.137 387.91L203.947 390.404L208.196 392.794L195.628 400.273L199.877 402.664L216.634 392.691L208.137 387.91Z" fill="#455A64"/>
<path d="M187.428 419.91L191.617 417.417L187.368 415.026L183.179 417.519L174.682 412.738L170.492 415.232L187.487 424.793L191.676 422.3L187.428 419.91Z" fill="#455A64"/>
<path d="M183.06 407.752L178.871 410.245L183.12 412.636L187.309 410.143L183.06 407.752Z" fill="#455A64"/>
<path d="M212.623 409.835L221.002 404.849L216.753 402.458L212.564 404.951L208.315 402.561L199.936 407.547L191.439 402.766L187.249 405.259L195.747 410.04L191.558 412.533L200.055 417.314L204.244 414.821L199.996 412.431L202.09 411.184L204.185 409.937L208.374 407.444L212.623 409.835Z" fill="#455A64"/>
<path d="M220.883 395.082L216.693 397.575L225.191 402.356L229.38 399.863L220.883 395.082Z" fill="#455A64"/>
<path d="M229.44 404.746L216.872 412.225L221.12 414.616L229.499 409.629L242.245 416.801L233.866 421.787L238.115 424.177L250.683 416.698L246.434 414.308L254.813 409.322L250.564 406.931L242.186 411.917L229.44 404.746Z" fill="#455A64"/>
<path d="M229.558 414.513L225.369 417.006L229.618 419.396L233.807 416.903L229.558 414.513Z" fill="#455A64"/>
<path d="M237.818 399.76L233.629 402.253L242.126 407.034L246.316 404.541L237.818 399.76Z" fill="#455A64"/>
<path d="M263.073 394.568L250.505 402.048L263.251 409.219L267.44 406.726L258.943 401.945L267.321 396.959L263.073 394.568Z" fill="#455A64"/>
<path d="M275.76 396.856L267.381 401.842L271.63 404.233L280.008 399.247L275.76 396.856Z" fill="#455A64"/>
<path d="M258.765 387.295L254.575 389.788L258.824 392.178L263.013 389.685L258.765 387.295Z" fill="#455A64"/>
<path d="M246.256 399.657L250.445 397.164L237.699 389.993L229.321 394.979L233.569 397.369L237.759 394.876L246.256 399.657Z" fill="#455A64"/>
<path d="M233.391 382.719L229.202 385.212L224.953 382.822L220.764 385.315L225.013 387.705L220.823 390.198L225.072 392.589L241.829 382.616L237.581 380.226L241.77 377.733L237.521 375.342L229.142 380.329L233.391 382.719Z" fill="#455A64"/>
<path d="M250.267 382.514L241.889 387.5L246.137 389.89L254.516 384.904L250.267 382.514Z" fill="#455A64"/>
</g>
<path d="M416 364.9C415.96 364.803 415.906 364.712 415.84 364.63C415.797 364.57 415.75 364.514 415.7 364.46L415.55 364.27L415.37 364.1C415.164 363.928 414.943 363.774 414.71 363.64L194.47 236.5C193.338 235.928 192.088 235.63 190.82 235.63C189.552 235.63 188.302 235.928 187.17 236.5L79.17 298.83C79.01 298.93 78.86 299.01 78.74 299.1L78.59 299.22C78.3498 299.414 78.1436 299.648 77.9801 299.91C77.9354 299.965 77.8984 300.025 77.8701 300.09C77.8205 300.178 77.7835 300.272 77.76 300.37C77.7354 300.442 77.7154 300.515 77.7 300.59C77.6853 300.713 77.6853 300.837 77.7 300.96C77.6948 301.043 77.6948 301.127 77.7 301.21C77.7174 301.309 77.7442 301.406 77.78 301.5C77.8106 301.592 77.8474 301.683 77.89 301.77C78.1906 302.311 78.6424 302.752 79.1901 303.04L299.42 430.18C300.096 430.55 300.83 430.8 301.59 430.92C302.08 430.996 302.574 431.036 303.07 431.04C303.562 431.039 304.053 431.002 304.54 430.93C304.7 430.912 304.857 430.879 305.01 430.83C305.465 430.732 305.907 430.584 306.33 430.39C306.47 430.33 306.59 430.25 306.72 430.18L414.72 367.85C416.07 367.05 416.5 365.91 416 364.9ZM392.29 360.38L385.38 364.38L293.38 417.45C293.13 417.58 292.89 417.71 292.64 417.82C291.121 418.44 289.419 418.44 287.9 417.82C287.65 417.71 287.39 417.58 287.15 417.45L112.49 316.6L104 311.73C103.706 311.566 103.44 311.356 103.21 311.11C102.33 310.11 102.61 308.93 104 308.11L202.85 251.05C203.98 250.285 205.328 249.909 206.69 249.98C207.012 250.026 207.328 250.11 207.63 250.23C207.797 250.296 207.957 250.376 208.11 250.47L392.26 356.76C392.578 356.943 392.842 357.207 393.025 357.525C393.208 357.843 393.305 358.203 393.305 358.57C393.305 358.937 393.208 359.297 393.025 359.615C392.842 359.933 392.578 360.197 392.26 360.38H392.29Z" fill="#E2FF96"/>
<path opacity="0.3" d="M416 364.9C415.96 364.803 415.906 364.712 415.84 364.63C415.797 364.57 415.75 364.514 415.7 364.46L415.55 364.27L415.37 364.1C415.164 363.928 414.943 363.774 414.71 363.64L194.47 236.5C193.338 235.928 192.088 235.63 190.82 235.63C189.552 235.63 188.302 235.928 187.17 236.5L79.17 298.83C79.01 298.93 78.86 299.01 78.74 299.1L78.59 299.22C78.3498 299.414 78.1436 299.648 77.9801 299.91C77.9354 299.965 77.8984 300.025 77.8701 300.09C77.8205 300.178 77.7835 300.272 77.76 300.37C77.7354 300.442 77.7154 300.515 77.7 300.59C77.6853 300.713 77.6853 300.837 77.7 300.96C77.6948 301.043 77.6948 301.127 77.7 301.21C77.7174 301.309 77.7442 301.406 77.78 301.5C77.8106 301.592 77.8474 301.683 77.89 301.77C78.1906 302.311 78.6424 302.752 79.1901 303.04L299.42 430.18C300.096 430.55 300.83 430.8 301.59 430.92C302.08 430.996 302.574 431.036 303.07 431.04C303.562 431.039 304.053 431.002 304.54 430.93C304.7 430.912 304.857 430.879 305.01 430.83C305.465 430.732 305.907 430.584 306.33 430.39C306.47 430.33 306.59 430.25 306.72 430.18L414.72 367.85C416.07 367.05 416.5 365.91 416 364.9ZM392.29 360.38L385.38 364.38L293.38 417.45C293.13 417.58 292.89 417.71 292.64 417.82C291.121 418.44 289.419 418.44 287.9 417.82C287.65 417.71 287.39 417.58 287.15 417.45L112.49 316.6L104 311.73C103.706 311.566 103.44 311.356 103.21 311.11C102.33 310.11 102.61 308.93 104 308.11L202.85 251.05C203.98 250.285 205.328 249.909 206.69 249.98C207.012 250.026 207.328 250.11 207.63 250.23C207.797 250.296 207.957 250.376 208.11 250.47L392.26 356.76C392.578 356.943 392.842 357.207 393.025 357.525C393.208 357.843 393.305 358.203 393.305 358.57C393.305 358.937 393.208 359.297 393.025 359.615C392.842 359.933 392.578 360.197 392.26 360.38H392.29Z" fill="black"/>
<path d="M78.78 299.11C77.8415 299.819 77.0671 300.722 76.5097 301.757C75.9522 302.793 75.6249 303.936 75.55 305.11V310C75.6184 311.268 75.9845 312.501 76.6186 313.601C77.2528 314.701 78.1371 315.636 79.2 316.33L299.4 443.44C300.229 443.891 301.141 444.17 302.08 444.26C302.412 444.301 302.746 444.322 303.08 444.32V444.32V431.05C302.584 431.051 302.089 431.011 301.6 430.93C300.838 430.814 300.104 430.564 299.43 430.19L79.21 303C77.35 302 77.2 300.27 78.78 299.11Z" fill="#E2FF96"/>
<path opacity="0.5" d="M78.78 299.11C77.8415 299.819 77.0671 300.722 76.5097 301.757C75.9522 302.793 75.6249 303.936 75.55 305.11V310C75.6184 311.268 75.9845 312.501 76.6186 313.601C77.2528 314.701 78.1371 315.636 79.2 316.33L299.4 443.44C300.229 443.891 301.141 444.17 302.08 444.26C302.412 444.301 302.746 444.322 303.08 444.32V431.05C302.584 431.051 302.089 431.011 301.6 430.93C300.838 430.814 300.104 430.564 299.43 430.19L79.21 303C77.35 302 77.2 300.27 78.78 299.11Z" fill="black"/>
<path d="M357.65 390.78C355.628 389.783 353.404 389.265 351.15 389.265C348.896 389.265 346.672 389.783 344.65 390.78C343.859 391.198 343.188 391.811 342.7 392.56C341.53 394.56 343.7 396.12 344.65 396.69C346.672 397.687 348.896 398.205 351.15 398.205C353.404 398.205 355.628 397.687 357.65 396.69C358.453 396.27 359.14 395.659 359.65 394.91C360.77 392.88 358.62 391.35 357.65 390.78Z" fill="#E2FF96"/>
<path d="M142 273.38C142.214 273.306 142.4 273.167 142.531 272.982C142.663 272.798 142.733 272.577 142.733 272.35C142.733 272.123 142.663 271.902 142.531 271.718C142.4 271.533 142.214 271.394 142 271.32C141.447 271.039 140.835 270.892 140.215 270.892C139.595 270.892 138.983 271.039 138.43 271.32C138.216 271.394 138.03 271.533 137.899 271.718C137.767 271.902 137.697 272.123 137.697 272.35C137.697 272.577 137.767 272.798 137.899 272.982C138.03 273.167 138.216 273.306 138.43 273.38C138.983 273.661 139.595 273.808 140.215 273.808C140.835 273.808 141.447 273.661 142 273.38Z" fill="#263238"/>
<path d="M136.42 283.14C136.598 283.062 136.748 282.934 136.854 282.771C136.96 282.609 137.017 282.419 137.017 282.225C137.017 282.031 136.96 281.841 136.854 281.679C136.748 281.516 136.598 281.388 136.42 281.31C135.928 281.064 135.385 280.935 134.835 280.935C134.285 280.935 133.742 281.064 133.25 281.31C133.073 281.388 132.922 281.516 132.816 281.679C132.71 281.841 132.654 282.031 132.654 282.225C132.654 282.419 132.71 282.609 132.816 282.771C132.922 282.934 133.073 283.062 133.25 283.14C133.741 283.391 134.284 283.522 134.835 283.522C135.386 283.522 135.929 283.391 136.42 283.14Z" fill="#263238"/>
<path d="M141.78 280.12L159.5 269.88C160.5 269.32 160.5 268.44 159.61 267.88C159.077 267.621 158.49 267.491 157.898 267.501C157.305 267.512 156.723 267.662 156.2 267.94L138.48 278.17C137.48 278.73 137.48 279.62 138.37 280.17C138.902 280.431 139.488 280.563 140.081 280.554C140.674 280.545 141.256 280.396 141.78 280.12V280.12Z" fill="#263238"/>
<path d="M415.16 364C416.68 365.18 416.51 366.84 414.68 367.89L306.68 430.23C305.556 430.822 304.3 431.117 303.03 431.09V444.36C304.299 444.379 305.553 444.073 306.67 443.47L414.67 381.16C415.737 380.471 416.625 379.537 417.26 378.436C417.895 377.335 418.258 376.099 418.32 374.83V370C418.254 368.832 417.937 367.692 417.392 366.657C416.847 365.622 416.086 364.716 415.16 364V364Z" fill="#E2FF96"/>
<path opacity="0.4" d="M415.16 364C416.68 365.18 416.51 366.84 414.68 367.89L306.68 430.23C305.556 430.822 304.3 431.117 303.03 431.09V444.36C304.299 444.379 305.553 444.073 306.67 443.47L414.67 381.16C415.737 380.471 416.625 379.537 417.26 378.436C417.895 377.335 418.258 376.099 418.32 374.83V370C418.254 368.832 417.937 367.692 417.392 366.657C416.847 365.622 416.086 364.716 415.16 364Z" fill="black"/>
<path d="M130.71 336.5C131.249 336.835 131.701 337.294 132.028 337.838C132.355 338.382 132.548 338.997 132.59 339.63C132.615 339.844 132.579 340.06 132.487 340.254C132.396 340.449 132.251 340.614 132.07 340.73L130.75 341.5C130.529 341.593 130.287 341.627 130.049 341.599C129.811 341.571 129.584 341.482 129.39 341.34L104.84 327.17C104.303 326.827 103.856 326.36 103.536 325.808C103.216 325.257 103.032 324.637 103 324C102.983 323.794 103.018 323.587 103.102 323.399C103.186 323.21 103.316 323.045 103.48 322.92C103.72 322.77 104.61 322.26 104.84 322.13C105.062 322.035 105.305 321.998 105.545 322.025C105.785 322.051 106.014 322.139 106.21 322.28L130.71 336.5Z" fill="#E2FF96"/>
<path opacity="0.4" d="M130.71 336.5C131.249 336.835 131.701 337.294 132.028 337.838C132.355 338.382 132.548 338.997 132.59 339.63C132.615 339.844 132.579 340.06 132.487 340.254C132.396 340.449 132.251 340.614 132.07 340.73L130.75 341.5C130.529 341.593 130.287 341.627 130.049 341.599C129.811 341.571 129.584 341.482 129.39 341.34L104.84 327.17C104.303 326.827 103.856 326.36 103.536 325.808C103.216 325.257 103.032 324.637 103 324C102.983 323.794 103.018 323.587 103.102 323.399C103.186 323.21 103.316 323.045 103.48 322.92C103.72 322.77 104.61 322.26 104.84 322.13C105.062 322.035 105.305 321.998 105.545 322.025C105.785 322.051 106.014 322.139 106.21 322.28L130.71 336.5Z" fill="black"/>
<path d="M129.39 337.26L104.84 323.08C103.84 322.48 102.95 322.91 102.95 324.08C102.994 324.714 103.188 325.329 103.517 325.874C103.845 326.418 104.299 326.876 104.84 327.21L129.39 341.38C130.39 341.99 131.28 341.56 131.28 340.43C131.243 339.789 131.052 339.166 130.723 338.614C130.394 338.062 129.937 337.598 129.39 337.26Z" fill="#E2FF96"/>
<path opacity="0.3" d="M129.39 337.26L104.84 323.08C103.84 322.48 102.95 322.91 102.95 324.08C102.994 324.714 103.188 325.329 103.517 325.874C103.845 326.418 104.299 326.876 104.84 327.21L129.39 341.38C130.39 341.99 131.28 341.56 131.28 340.43C131.243 339.789 131.052 339.166 130.723 338.614C130.394 338.062 129.937 337.598 129.39 337.26Z" fill="black"/>
<path d="M97.8501 317.52C98.3879 317.859 98.8384 318.32 99.165 318.866C99.4916 319.411 99.6852 320.026 99.7301 320.66C99.7538 320.874 99.7177 321.089 99.6259 321.284C99.5341 321.478 99.3901 321.643 99.2101 321.76L97.8901 322.53C97.6689 322.623 97.4273 322.657 97.189 322.629C96.9507 322.601 96.7237 322.512 96.5301 322.37L85.0001 315.69C84.459 315.356 84.0052 314.898 83.6765 314.354C83.3478 313.809 83.1537 313.194 83.1101 312.56C83.0901 312.354 83.1238 312.146 83.2079 311.957C83.292 311.768 83.4237 311.603 83.5901 311.48C83.8201 311.33 84.7101 310.82 84.9501 310.69C85.1696 310.592 85.4114 310.554 85.6505 310.58C85.8896 310.606 86.1173 310.696 86.3101 310.84L97.8501 317.52Z" fill="#E2FF96"/>
<path opacity="0.4" d="M97.8501 317.52C98.3879 317.859 98.8384 318.32 99.165 318.866C99.4916 319.411 99.6852 320.026 99.7301 320.66C99.7538 320.874 99.7177 321.089 99.6259 321.284C99.5341 321.478 99.3901 321.643 99.2101 321.76L97.8901 322.53C97.6689 322.623 97.4273 322.657 97.189 322.629C96.9507 322.601 96.7237 322.512 96.5301 322.37L85.0001 315.69C84.459 315.356 84.0052 314.898 83.6765 314.354C83.3478 313.809 83.1537 313.194 83.1101 312.56C83.0901 312.354 83.1238 312.146 83.2079 311.957C83.292 311.768 83.4237 311.603 83.5901 311.48C83.8201 311.33 84.7101 310.82 84.9501 310.69C85.1696 310.592 85.4114 310.554 85.6505 310.58C85.8896 310.606 86.1173 310.696 86.3101 310.84L97.8501 317.52Z" fill="black"/>
<path d="M96.5301 318.28L85.0001 311.6C84.0001 311 83.1101 311.43 83.1101 312.6C83.1598 313.227 83.3569 313.834 83.6853 314.371C84.0137 314.908 84.4642 315.36 85.0001 315.69L96.5701 322.37C97.5701 322.97 98.4601 322.55 98.4601 321.42C98.4089 320.781 98.2074 320.164 97.8719 319.618C97.5365 319.073 97.0767 318.614 96.5301 318.28V318.28Z" fill="#E2FF96"/>
<path opacity="0.3" d="M96.5301 318.28L85.0001 311.6C84.0001 311 83.1101 311.43 83.1101 312.6C83.1598 313.227 83.3569 313.834 83.6853 314.371C84.0137 314.908 84.4642 315.36 85.0001 315.69L96.5701 322.37C97.5701 322.97 98.4601 322.55 98.4601 321.42C98.4089 320.781 98.2074 320.164 97.8719 319.618C97.5365 319.073 97.0767 318.614 96.5301 318.28V318.28Z" fill="black"/>
<path d="M392.26 360.38L385.35 364.38L208.35 262.23C206.63 261.23 204.82 261.82 203.1 262.81L111.2 315.88L104 311.72C103.707 311.559 103.44 311.353 103.21 311.11C102.33 310.11 102.61 308.93 104 308.11L202.85 251.05C203.98 250.285 205.328 249.909 206.69 249.98C207.014 250.016 207.331 250.1 207.63 250.23C207.797 250.296 207.957 250.376 208.11 250.47L392.26 356.76C392.578 356.943 392.842 357.207 393.025 357.525C393.208 357.843 393.305 358.203 393.305 358.57C393.305 358.937 393.208 359.297 393.025 359.615C392.842 359.933 392.578 360.197 392.26 360.38Z" fill="#E2FF96"/>
<path opacity="0.5" d="M392.26 360.38L385.35 364.38L208.35 262.23C206.63 261.23 204.82 261.82 203.1 262.81L111.2 315.88L104 311.72C103.707 311.559 103.44 311.353 103.21 311.11C102.33 310.11 102.61 308.93 104 308.11L202.85 251.05C203.98 250.285 205.328 249.909 206.69 249.98C207.014 250.016 207.331 250.1 207.63 250.23C207.797 250.296 207.957 250.376 208.11 250.47L392.26 356.76C392.578 356.943 392.842 357.207 393.025 357.525C393.208 357.843 393.305 358.203 393.305 358.57C393.305 358.937 393.208 359.297 393.025 359.615C392.842 359.933 392.578 360.197 392.26 360.38Z" fill="black"/>
<path d="M206.1 250C204.957 250.095 203.855 250.469 202.89 251.09L104 308.11C102.61 308.93 102.33 310.11 103.21 311.11C103.44 311.353 103.707 311.559 104 311.72L111.16 315.88L203.1 262.8C204.014 262.239 205.037 261.878 206.1 261.74V250Z" fill="#E2FF96"/>
<path opacity="0.4" d="M206.1 250C204.957 250.095 203.855 250.469 202.89 251.09L104 308.11C102.61 308.93 102.33 310.11 103.21 311.11C103.44 311.353 103.707 311.559 104 311.72L111.16 315.88L203.1 262.8C204.014 262.239 205.037 261.878 206.1 261.74V250Z" fill="black"/>
<path opacity="0.1" d="M392.26 360.33L385.35 364.33L293.35 417.4C293.1 417.53 292.86 417.66 292.61 417.76C291.859 418.072 291.053 418.233 290.24 418.233C289.427 418.233 288.621 418.072 287.87 417.76C287.613 417.654 287.363 417.534 287.12 417.4L112.49 316.55L104 311.68C103.706 311.516 103.44 311.306 103.21 311.06C102.33 310.06 102.61 308.87 104 308.06L202.89 251C204.023 250.243 205.369 249.871 206.73 249.94C207.053 249.981 207.369 250.065 207.67 250.19C207.836 250.252 207.997 250.329 208.15 250.42L392.26 356.72C392.575 356.904 392.837 357.168 393.019 357.484C393.201 357.801 393.296 358.16 393.296 358.525C393.296 358.89 393.201 359.249 393.019 359.566C392.837 359.882 392.575 360.146 392.26 360.33V360.33Z" fill="black"/>
<path d="M124.92 304.21C124.871 304.221 124.819 304.221 124.77 304.21L124.29 303.93L123.12 304.61C123.089 304.627 123.055 304.635 123.02 304.635C122.985 304.635 122.951 304.627 122.92 304.61L122.75 304.51C122.718 304.498 122.691 304.477 122.67 304.45C122.67 304.45 122.67 304.45 122.67 304.39L122.17 302.66C122.17 302.66 122.17 302.61 122.17 302.59H122.23L122.4 302.49C122.446 302.475 122.495 302.475 122.54 302.49C122.593 302.497 122.643 302.514 122.69 302.54L124.39 303.54L124.65 303.39C124.696 303.377 124.744 303.377 124.79 303.39C124.839 303.399 124.886 303.416 124.93 303.44L125.05 303.51C125.05 303.51 125.13 303.57 125.13 303.59C125.13 303.61 125.13 303.64 125.06 303.67L124.8 303.82L125.29 304.1C125.29 304.1 125.37 304.16 125.37 304.18C125.37 304.2 125.37 304.24 125.29 304.27L125.1 304.38C125.059 304.368 125.021 304.346 124.989 304.317C124.958 304.287 124.934 304.251 124.92 304.21V304.21ZM123.92 303.6L122.71 302.9L123.08 304.09L123.92 303.6Z" fill="white"/>
<path d="M126 303.24C125.484 303.212 124.982 303.058 124.54 302.79C124.06 302.51 123.8 302.23 123.77 301.94C123.74 301.65 123.92 301.4 124.34 301.16C124.507 301.06 124.685 300.979 124.87 300.92C125.041 300.861 125.219 300.824 125.4 300.81H125.49L125.6 301C125.6 301 125.6 301 125.6 301.05H125.54C125.272 301.081 125.014 301.166 124.78 301.3C124.5 301.46 124.37 301.64 124.39 301.84C124.39 302.04 124.61 302.25 124.98 302.46C125.304 302.66 125.671 302.78 126.05 302.81C126.367 302.825 126.682 302.753 126.96 302.6C127.051 302.547 127.138 302.487 127.22 302.42C127.28 302.369 127.331 302.308 127.37 302.24L126.58 301.78L126.1 302.06C126.055 302.077 126.005 302.077 125.96 302.06C125.906 302.057 125.855 302.04 125.81 302.01L125.7 301.95C125.7 301.95 125.62 301.89 125.62 301.87C125.62 301.85 125.62 301.82 125.69 301.79L126.46 301.34C126.515 301.322 126.575 301.322 126.63 301.34C126.691 301.343 126.75 301.364 126.8 301.4L127.92 302.05C127.954 302.063 127.985 302.083 128.01 302.11C128.015 302.119 128.018 302.129 128.018 302.14C128.018 302.151 128.015 302.161 128.01 302.17C127.876 302.471 127.633 302.71 127.33 302.84C126.936 303.101 126.473 303.241 126 303.24V303.24Z" fill="white"/>
<path d="M135.68 297.45C136.06 297.66 136.06 298.01 135.68 298.23C135.472 298.339 135.24 298.395 135.005 298.395C134.77 298.395 134.538 298.339 134.33 298.23C133.95 298.01 133.95 297.66 134.33 297.45C134.538 297.341 134.77 297.285 135.005 297.285C135.24 297.285 135.472 297.341 135.68 297.45Z" fill="white"/>
<path d="M133.22 296.81C132.53 297.2 132.32 297.81 132.58 298.26C132.629 298.319 132.693 298.364 132.765 298.392C132.836 298.42 132.914 298.43 132.99 298.42V298.42C133.21 298.42 133.37 298.27 133.3 298.14C133.11 297.79 133.3 297.39 133.74 297.14C134.29 296.863 134.915 296.775 135.52 296.89C135.74 296.89 135.97 296.84 136 296.71C136 296.6 135.91 296.5 135.73 296.47C134.879 296.301 133.995 296.421 133.22 296.81V296.81Z" fill="white"/>
<path d="M132.13 296.18C131.13 296.77 130.75 297.59 131.04 298.35C131.04 298.46 131.26 298.53 131.45 298.52C131.67 298.52 131.82 298.38 131.77 298.26C131.53 297.64 131.82 296.97 132.65 296.49C133.595 296.004 134.667 295.822 135.72 295.97C135.94 295.97 136.15 295.92 136.18 295.79C136.18 295.68 136.07 295.57 135.88 295.55C134.595 295.363 133.284 295.584 132.13 296.18V296.18Z" fill="white"/>
<path d="M152.13 286.5C152.094 286.511 152.056 286.511 152.02 286.5C152.014 286.488 152.011 286.474 152.011 286.46C152.011 286.446 152.014 286.432 152.02 286.42L152.23 285.42C152.229 285.397 152.229 285.373 152.23 285.35C152.241 285.32 152.262 285.295 152.29 285.28L152.64 285.08C152.677 285.06 152.718 285.049 152.76 285.049C152.802 285.049 152.843 285.06 152.88 285.08L155.78 286.76C155.793 286.764 155.805 286.772 155.814 286.782C155.823 286.793 155.829 286.806 155.83 286.82C155.829 286.835 155.824 286.85 155.815 286.862C155.806 286.875 155.794 286.884 155.78 286.89L155.42 287.1C155.381 287.11 155.339 287.11 155.3 287.1C155.261 287.112 155.219 287.112 155.18 287.1L152.96 285.83L152.82 286.48C152.809 286.51 152.788 286.535 152.76 286.55H152.63L152.13 286.5Z" fill="white"/>
<path d="M154.4 285.19C154.364 285.201 154.326 285.201 154.29 285.19C154.284 285.177 154.282 285.164 154.282 285.15C154.282 285.136 154.284 285.123 154.29 285.11L154.5 284.11C154.5 284.11 154.5 284.06 154.5 284.03C154.515 284.005 154.535 283.985 154.56 283.97L154.91 283.77C154.947 283.75 154.988 283.739 155.03 283.739C155.072 283.739 155.113 283.75 155.15 283.77L158.05 285.44C158.064 285.446 158.076 285.455 158.085 285.468C158.094 285.48 158.099 285.495 158.1 285.51C158.1 285.51 158.1 285.51 158.05 285.58L157.69 285.79C157.653 285.809 157.612 285.819 157.57 285.819C157.528 285.819 157.487 285.809 157.45 285.79L155.23 284.51L155.09 285.17C155.086 285.184 155.078 285.197 155.067 285.208C155.057 285.218 155.044 285.226 155.03 285.23C154.988 285.245 154.942 285.245 154.9 285.23L154.4 285.19Z" fill="white"/>
<path d="M157.26 283.4C157.299 283.388 157.341 283.388 157.38 283.4C157.419 283.39 157.461 283.39 157.5 283.4L157.94 283.66C157.953 283.664 157.965 283.672 157.974 283.682C157.983 283.693 157.989 283.706 157.99 283.72C157.989 283.736 157.984 283.752 157.975 283.766C157.966 283.78 157.954 283.792 157.94 283.8L157.52 284.04H157.4H157.28L156.84 283.78C156.84 283.78 156.79 283.78 156.79 283.71C156.79 283.64 156.79 283.71 156.84 283.64L157.26 283.4ZM158.83 284.31C158.867 284.29 158.908 284.279 158.95 284.279C158.992 284.279 159.033 284.29 159.07 284.31L159.51 284.56C159.51 284.56 159.56 284.56 159.56 284.63C159.56 284.7 159.56 284.68 159.51 284.7L159.09 284.94C159.053 284.959 159.012 284.969 158.97 284.969C158.928 284.969 158.887 284.959 158.85 284.94L158.41 284.69C158.41 284.69 158.41 284.69 158.41 284.62C158.41 284.55 158.41 284.57 158.41 284.55L158.83 284.31Z" fill="white"/>
<path d="M161.91 283.32C161.867 283.33 161.823 283.33 161.78 283.32H161.66L161.12 283L159.73 283.81C159.691 283.82 159.649 283.82 159.61 283.81C159.571 283.822 159.529 283.822 159.49 283.81L159.17 283.62C159.134 283.605 159.105 283.576 159.09 283.54C159.081 283.511 159.081 283.479 159.09 283.45L158.74 281.66C158.732 281.627 158.736 281.592 158.75 281.561C158.765 281.53 158.789 281.505 158.82 281.49L159.16 281.29H159.28H159.4L161.19 282.29L161.58 282.07C161.617 282.05 161.658 282.039 161.7 282.039C161.742 282.039 161.783 282.05 161.82 282.07L162.14 282.25C162.14 282.25 162.14 282.25 162.14 282.32C162.14 282.39 162.14 282.37 162.14 282.39L161.75 282.61L162.3 282.93C162.3 282.93 162.3 282.93 162.3 283C162.3 283.07 162.3 283 162.3 283.07L161.91 283.32ZM160.56 282.68L159.56 282.13L159.75 283.13L160.56 282.68Z" fill="white"/>
<path d="M160.69 280.53C160.69 280.53 160.64 280.53 160.64 280.46C160.643 280.445 160.648 280.431 160.657 280.419C160.666 280.407 160.677 280.397 160.69 280.39L162.38 279.39C162.419 279.378 162.461 279.378 162.5 279.39C162.54 279.381 162.581 279.381 162.62 279.39L162.94 279.57C162.953 279.577 162.964 279.587 162.973 279.599C162.982 279.611 162.987 279.625 162.99 279.64C162.99 279.64 162.99 279.69 162.94 279.71L161.68 280.44L162.2 280.8C162.253 280.736 162.313 280.679 162.38 280.63L162.57 280.51C162.737 280.413 162.915 280.336 163.1 280.28C163.285 280.223 163.477 280.189 163.67 280.18C163.865 280.171 164.06 280.188 164.25 280.23C164.437 280.267 164.616 280.334 164.78 280.43C164.939 280.509 165.077 280.625 165.18 280.77C165.249 280.869 165.278 280.991 165.26 281.11C165.243 281.236 165.178 281.35 165.08 281.43C164.967 281.55 164.835 281.652 164.69 281.73C164.498 281.843 164.293 281.934 164.08 282C163.898 282.057 163.71 282.09 163.52 282.1C163.354 282.126 163.186 282.126 163.02 282.1C162.874 282.073 162.733 282.026 162.6 281.96C162.6 281.96 162.54 281.96 162.6 281.89C162.66 281.82 162.6 281.84 162.6 281.82L162.96 281.61C162.996 281.6 163.034 281.6 163.07 281.61H163.2C163.28 281.64 163.365 281.657 163.45 281.66C163.529 281.676 163.611 281.676 163.69 281.66C163.766 281.651 163.84 281.631 163.91 281.6L164.13 281.49C164.3 281.39 164.39 281.29 164.4 281.17C164.41 281.05 164.34 280.95 164.17 280.86C164.02 280.778 163.85 280.743 163.68 280.76C163.488 280.77 163.3 280.821 163.13 280.91C163.061 280.948 162.997 280.995 162.94 281.05C162.907 281.077 162.879 281.111 162.86 281.15C162.846 281.178 162.829 281.205 162.81 281.23C162.791 281.26 162.763 281.285 162.73 281.3L162.32 281.54H162.2C162.157 281.55 162.113 281.55 162.07 281.54L160.69 280.53Z" fill="white"/>
<path d="M112.37 311.87L111.43 311.33L112.68 310.61L113.61 311.15L112.37 311.87Z" fill="white"/>
<path d="M114.24 310.79L112.37 309.71L113.61 308.99L115.48 310.07L114.24 310.79Z" fill="white"/>
<path d="M116.11 309.71L113.3 308.09L114.55 307.37L117.36 308.99L116.11 309.71Z" fill="white"/>
<path d="M117.98 308.63L114.24 306.47L115.49 305.75L119.23 307.91L117.98 308.63Z" fill="white"/>
<path d="M202.54 256.31C202.288 256.271 202.03 256.309 201.8 256.42L197.14 259.1C196.84 259.28 196.92 259.59 197.32 259.83L199.02 260.83C199.273 260.968 199.553 261.05 199.84 261.07C199.963 261.085 200.087 261.085 200.21 261.07C200.336 261.063 200.459 261.029 200.57 260.97L205.24 258.28C205.54 258.11 205.46 257.79 205.06 257.56L203.36 256.56C203.107 256.42 202.828 256.335 202.54 256.31ZM199.8 260.88C199.674 260.861 199.552 260.821 199.44 260.76L197.74 259.76C197.45 259.59 197.39 259.33 197.61 259.21L202.27 256.52C202.33 256.49 202.394 256.469 202.46 256.46H202.58C202.702 256.475 202.821 256.512 202.93 256.57L204.63 257.57C204.93 257.74 204.99 257.99 204.77 258.12L200.1 260.8C200.009 260.853 199.905 260.881 199.8 260.88V260.88Z" fill="white"/>
<path d="M198.79 258.89L200.79 260.05L200.06 260.47C199.979 260.499 199.891 260.499 199.81 260.47L198.31 259.61C198.1 259.48 198.05 259.29 198.21 259.2L198.79 258.89Z" fill="white"/>
<path d="M199.13 258.69L200 258.19L202.02 259.35L201.14 259.85L199.13 258.69Z" fill="white"/>
<path d="M200.35 257.99L201.22 257.49L203.24 258.65L202.36 259.15L200.35 257.99Z" fill="white"/>
<path d="M202.57 256.86L204.02 257.7C204.29 257.86 204.23 258.08 203.87 258.29L203.58 258.46L201.58 257.29L202.27 256.89C202.364 256.849 202.469 256.838 202.57 256.86Z" fill="white"/>
<path d="M203.54 256.45C203.848 256.42 204.157 256.501 204.41 256.68L204.72 256.86C205.07 257.06 205.26 257.29 205.13 257.37L204.91 257.52L203.31 256.59L203.54 256.45Z" fill="white"/>
<path d="M190.66 264.15L194.28 261.01L196.18 263.72L193.68 263.04L190.66 264.15Z" fill="white"/>
<path d="M121.55 316.53C121.459 316.53 121.369 316.506 121.29 316.46C121.211 316.415 121.146 316.349 121.1 316.27C121.064 316.21 121.041 316.144 121.031 316.076C121.021 316.007 121.026 315.937 121.043 315.87C121.061 315.803 121.092 315.74 121.134 315.685C121.177 315.63 121.23 315.584 121.29 315.55L129.86 310.6C129.92 310.555 129.988 310.524 130.061 310.507C130.134 310.491 130.21 310.49 130.283 310.505C130.356 310.52 130.425 310.55 130.486 310.594C130.547 310.637 130.598 310.693 130.635 310.758C130.673 310.822 130.696 310.894 130.704 310.968C130.712 311.043 130.704 311.118 130.681 311.189C130.658 311.26 130.62 311.325 130.57 311.381C130.52 311.436 130.458 311.48 130.39 311.51L121.82 316.46C121.738 316.507 121.645 316.531 121.55 316.53Z" fill="#455A64"/>
<path d="M124.49 318.19C124.364 318.208 124.235 318.179 124.129 318.108C124.023 318.037 123.946 317.93 123.914 317.806C123.882 317.682 123.896 317.551 123.955 317.438C124.013 317.324 124.111 317.236 124.23 317.19L132.8 312.24C132.861 312.199 132.929 312.171 133.001 312.158C133.073 312.145 133.147 312.147 133.218 312.164C133.289 312.181 133.356 312.212 133.414 312.256C133.473 312.3 133.521 312.355 133.557 312.419C133.593 312.483 133.616 312.553 133.623 312.626C133.631 312.698 133.623 312.772 133.601 312.841C133.578 312.911 133.542 312.975 133.494 313.03C133.445 313.085 133.386 313.129 133.32 313.16L124.75 318.1C124.674 318.155 124.584 318.186 124.49 318.19Z" fill="#455A64"/>
<path d="M127.43 319.86C127.309 319.866 127.19 319.83 127.092 319.759C126.994 319.688 126.924 319.586 126.892 319.469C126.86 319.352 126.87 319.228 126.919 319.117C126.967 319.006 127.053 318.916 127.16 318.86L135.73 313.92C135.849 313.868 135.983 313.861 136.107 313.902C136.231 313.942 136.335 314.026 136.401 314.139C136.466 314.251 136.488 314.384 136.462 314.511C136.436 314.639 136.364 314.752 136.26 314.83L127.69 319.83C127.607 319.862 127.518 319.873 127.43 319.86V319.86Z" fill="#455A64"/>
<path d="M152.32 301.79L152.06 301.64C150.3 300.64 150.3 298.97 152.06 297.95L180 281.85C180.99 281.347 182.085 281.084 183.195 281.084C184.305 281.084 185.4 281.347 186.39 281.85L186.65 281.99C188.41 282.99 188.41 284.67 186.65 285.69L158.76 301.78C157.764 302.29 156.661 302.557 155.541 302.558C154.422 302.56 153.318 302.297 152.32 301.79V301.79Z" fill="#FAFAFA"/>
<path d="M205 267.25C204.414 266.954 203.767 266.8 203.11 266.8C202.453 266.8 201.806 266.954 201.22 267.25C200.993 267.329 200.796 267.477 200.657 267.674C200.518 267.87 200.443 268.104 200.443 268.345C200.443 268.586 200.518 268.82 200.657 269.016C200.796 269.213 200.993 269.361 201.22 269.44C201.806 269.736 202.453 269.89 203.11 269.89C203.767 269.89 204.414 269.736 205 269.44C205.227 269.361 205.424 269.213 205.563 269.016C205.702 268.82 205.777 268.586 205.777 268.345C205.777 268.104 205.702 267.87 205.563 267.674C205.424 267.477 205.227 267.329 205 267.25V267.25Z" fill="#455A64"/>
<path d="M207.79 269.35L204.87 271C204.608 271.092 204.38 271.263 204.219 271.489C204.058 271.716 203.972 271.987 203.972 272.265C203.972 272.543 204.058 272.814 204.219 273.041C204.38 273.267 204.608 273.438 204.87 273.53L206.11 274.25L213.41 270.04L212.16 269.32C211.481 268.98 210.731 268.805 209.971 268.81C209.212 268.815 208.464 269 207.79 269.35Z" fill="#455A64"/>
<path d="M201 270.58L201.42 270.34L200.24 269.66C199.11 268.81 199.24 267.6 200.54 266.82C201.297 266.442 202.126 266.231 202.971 266.202C203.817 266.173 204.659 266.325 205.44 266.65L206.63 267.33L206.77 267.25C206.865 267.298 206.949 267.365 207.017 267.447C207.085 267.529 207.135 267.625 207.164 267.727C207.193 267.829 207.201 267.937 207.186 268.042C207.172 268.148 207.136 268.249 207.08 268.34C207.023 268.336 206.966 268.346 206.914 268.369C206.862 268.392 206.816 268.426 206.78 268.47L206.6 268.78C206.53 268.9 206.6 269.02 206.84 269.06C206.926 269.082 207.016 269.079 207.101 269.053C207.186 269.026 207.262 268.977 207.32 268.91L207.5 268.6C207.55 268.51 207.5 268.43 207.37 268.38C207.432 268.272 207.471 268.152 207.485 268.029C207.499 267.905 207.487 267.78 207.45 267.66C207.414 267.541 207.353 267.431 207.272 267.336C207.191 267.242 207.092 267.165 206.98 267.11V267.11C207.019 267.094 207.052 267.068 207.076 267.033C207.099 266.998 207.112 266.957 207.112 266.915C207.112 266.873 207.099 266.832 207.076 266.797C207.052 266.762 207.019 266.736 206.98 266.72L205.98 266.13C205.877 266.08 205.764 266.055 205.65 266.055C205.536 266.055 205.423 266.08 205.32 266.13H205.26C203.534 265.576 201.659 265.723 200.04 266.54C198.63 267.35 198.41 268.59 199.33 269.54H199.27C199.231 269.556 199.198 269.582 199.174 269.617C199.15 269.652 199.138 269.693 199.138 269.735C199.138 269.777 199.15 269.818 199.174 269.853C199.198 269.888 199.231 269.914 199.27 269.93L200.27 270.52C200.374 270.596 200.498 270.643 200.626 270.653C200.755 270.664 200.885 270.638 201 270.58Z" fill="#455A64"/>
<path d="M178.8 345.1C178.624 345.098 178.451 345.05 178.3 344.96L169.8 340.05C169.121 339.782 168.539 339.315 168.128 338.712C167.718 338.108 167.498 337.395 167.498 336.665C167.498 335.935 167.718 335.222 168.128 334.618C168.539 334.015 169.121 333.548 169.8 333.28L178.3 328.37C178.414 328.304 178.54 328.261 178.671 328.244C178.802 328.227 178.935 328.235 179.062 328.27C179.189 328.304 179.309 328.364 179.413 328.444C179.517 328.525 179.605 328.625 179.67 328.74C179.737 328.854 179.78 328.979 179.798 329.109C179.816 329.24 179.808 329.372 179.774 329.5C179.741 329.627 179.683 329.746 179.603 329.851C179.523 329.956 179.424 330.044 179.31 330.11L170.81 335.02C169.98 335.5 169.51 336.1 169.51 336.67C169.51 337.24 169.98 337.83 170.81 338.31L179.31 343.22C179.509 343.327 179.666 343.498 179.755 343.706C179.844 343.913 179.86 344.145 179.801 344.362C179.742 344.58 179.611 344.772 179.429 344.906C179.247 345.04 179.026 345.108 178.8 345.1Z" fill="#FAFAFA"/>
<path d="M243.07 380.74C241.376 380.77 239.702 380.364 238.21 379.56L229.72 374.66C229.488 374.527 229.318 374.308 229.248 374.05C229.177 373.792 229.212 373.517 229.345 373.285C229.478 373.053 229.697 372.883 229.955 372.813C230.213 372.742 230.488 372.777 230.72 372.91L239.21 377.82C240.407 378.412 241.724 378.721 243.06 378.721C244.396 378.721 245.713 378.412 246.91 377.82L255.42 372.91C255.534 372.843 255.659 372.8 255.789 372.782C255.92 372.764 256.052 372.772 256.18 372.806C256.307 372.839 256.426 372.897 256.531 372.977C256.636 373.057 256.724 373.156 256.79 373.27C256.858 373.384 256.903 373.51 256.922 373.642C256.94 373.773 256.933 373.907 256.899 374.035C256.866 374.164 256.807 374.284 256.726 374.39C256.646 374.495 256.545 374.584 256.43 374.65L247.92 379.56C246.431 380.363 244.761 380.77 243.07 380.74V380.74Z" fill="#FAFAFA"/>
<path d="M307.35 345.1C307.125 345.106 306.905 345.036 306.725 344.901C306.545 344.766 306.416 344.575 306.358 344.357C306.3 344.14 306.317 343.91 306.407 343.703C306.496 343.497 306.652 343.327 306.85 343.22L315.34 338.32C316.17 337.84 316.64 337.24 316.64 336.67C316.64 336.1 316.17 335.51 315.34 335.03L306.85 330.12C306.736 330.054 306.636 329.967 306.555 329.862C306.475 329.758 306.416 329.639 306.381 329.512C306.347 329.384 306.338 329.252 306.355 329.121C306.372 328.99 306.414 328.864 306.48 328.75C306.546 328.636 306.633 328.536 306.738 328.455C306.842 328.375 306.961 328.316 307.088 328.281C307.216 328.247 307.348 328.238 307.479 328.255C307.61 328.272 307.736 328.314 307.85 328.38L316.35 333.29C317.029 333.558 317.611 334.025 318.022 334.628C318.432 335.232 318.652 335.945 318.652 336.675C318.652 337.405 318.432 338.118 318.022 338.722C317.611 339.325 317.029 339.792 316.35 340.06L307.85 344.96C307.699 345.05 307.526 345.098 307.35 345.1Z" fill="#FAFAFA"/>
<path d="M255.93 300.54C255.754 300.538 255.581 300.49 255.43 300.4L246.92 295.48C245.724 294.885 244.406 294.576 243.07 294.576C241.734 294.576 240.416 294.885 239.22 295.48L230.73 300.38C230.499 300.513 230.225 300.548 229.968 300.479C229.711 300.409 229.493 300.241 229.36 300.01C229.227 299.779 229.192 299.505 229.261 299.248C229.331 298.991 229.499 298.773 229.73 298.64L238.22 293.73C239.723 292.956 241.389 292.553 243.08 292.553C244.771 292.553 246.437 292.956 247.94 293.73L256.45 298.65C256.564 298.716 256.663 298.804 256.743 298.909C256.823 299.014 256.881 299.133 256.914 299.26C256.948 299.388 256.956 299.52 256.938 299.651C256.92 299.781 256.877 299.906 256.81 300.02C256.724 300.178 256.596 300.309 256.441 300.401C256.287 300.492 256.11 300.54 255.93 300.54Z" fill="#FAFAFA"/>
<path d="M363.89 95.92C361.15 102.48 357.33 113.29 355.05 119.92L344.05 106.92H334.8C334.8 106.92 345.89 130.68 352.56 136.15C357 139.78 359.78 137.09 360.89 134.84C360.89 134.76 362.78 131.51 365.21 126.59C368.37 120.21 371.74 113.22 371.74 113.22L379 86.07C373.24 85.61 367.37 87.58 363.89 95.92Z" fill="#9C7248"/>
<path d="M355.05 119.89C356.287 121.343 357.416 122.884 358.43 124.5C358.43 124.5 357.11 120.08 355.5 118.59L355.05 119.89Z" fill="#876127"/>
<path d="M332 89.72L332.88 88.8C333.016 88.6844 333.179 88.6046 333.353 88.5679C333.528 88.5312 333.709 88.5388 333.88 88.59L344.53 90.4C345.074 90.5267 345.584 90.7716 346.023 91.1172C346.462 91.4629 346.819 91.9008 347.07 92.4L356.65 113.22C356.76 113.384 356.818 113.577 356.818 113.775C356.818 113.973 356.76 114.166 356.65 114.33V114.33L355.74 115.33C355.604 115.446 355.441 115.525 355.267 115.562C355.092 115.599 354.911 115.591 354.74 115.54L344.08 113.74C343.537 113.609 343.03 113.363 342.591 113.018C342.153 112.673 341.794 112.237 341.54 111.74L332 90.87C331.71 90.36 331.76 90 332 89.72Z" fill="#455A64"/>
<path d="M355.75 114.11L346.18 93.29C345.926 92.7913 345.566 92.354 345.126 92.0086C344.685 91.6632 344.175 91.418 343.63 91.29L333 89.53C332 89.36 331.55 89.96 332 90.87L341.57 111.69C341.824 112.187 342.183 112.623 342.621 112.968C343.06 113.313 343.567 113.559 344.11 113.69L354.77 115.49C355.71 115.62 356.17 115 355.75 114.11Z" fill="#263238"/>
<path d="M344.82 91.83C345.396 92.1861 345.866 92.6903 346.18 93.29L355.75 114.1C355.857 114.263 355.915 114.455 355.915 114.65C355.915 114.846 355.857 115.037 355.75 115.2L356.61 114.31C356.72 114.146 356.778 113.953 356.778 113.755C356.778 113.557 356.72 113.364 356.61 113.2L347.03 92.37C346.745 91.815 346.321 91.343 345.8 91L344.82 91.83Z" fill="#37474F"/>
<path d="M337.06 110.31C332.66 105.25 332.78 98.92 334.8 97.09L336.15 100.02C336.15 100.02 342.89 101.51 346.15 101.27C349.41 101.03 352.05 100.27 352.94 100.87C354.82 102.2 355.36 107.87 349.94 109.87C345.36 111.65 337.06 110.31 337.06 110.31Z" fill="#9C7248"/>
<path d="M419.56 285.73C420.229 288.578 420.753 291.459 421.13 294.36C421.55 297.63 421.81 300.05 422.76 305.63C423.62 310.72 424.28 314.63 420.68 318.43C417.52 321.8 411.95 323.09 410.11 319.26C408.01 314.89 408.29 307.79 408.57 303.37C408.85 298.95 408.79 297.66 408.83 294.14C408.83 291.04 409.01 289.77 409.18 287.09C412.58 286.92 416.16 286 419.56 285.73Z" fill="#37474F"/>
<path d="M382 302.2L380.8 302C380.73 298.34 380.94 295 380.03 293.27L381.69 288.78L382 302.2Z" fill="#263238"/>
<path d="M384.84 285.53C384.57 288.03 383.15 290.61 383.05 295.53C382.932 297.637 382.975 299.75 383.18 301.85L381.97 302.18L381.69 288.78L384.84 285.53Z" fill="#263238"/>
<path d="M357.22 305.56C357.22 305.56 357.28 307.03 357.91 307.51C358.54 307.99 359.91 309.44 366.31 309.05C372.71 308.66 375.01 307.05 377.21 305.05C379.41 303.05 379.99 297.77 380.32 295.28C380.96 290.46 382.96 287.94 384.84 285.51C385.14 284.708 385.196 283.834 385 283C385 283 379.68 282.71 377.37 288.61C375.06 294.51 373.26 301.36 368.05 302.99C364.497 304.073 360.88 304.931 357.22 305.56Z" fill="#263238"/>
<path d="M419.56 285.73C419.51 281.57 419.56 276.05 419.94 268.73C420.37 260.2 420.43 253.55 420.4 244.51C420.4 237.66 420.02 231.61 417.59 218.51C420.16 192.17 421.1 164.95 417.99 154.94C415.32 146.35 412.6 143.49 410.19 139.29C408.94 137.11 406.66 133.88 406.66 130.97C400.601 133.338 394.164 134.591 387.66 134.67C375.45 134.78 371.18 131.47 371.18 131.47C371.18 131.47 365.67 195.28 366.82 216.1C367.5 228.43 368.49 246.67 368.82 255.64C369.1 262.55 369.9 271.55 369.82 275.36C369.688 278.682 369.033 281.962 367.88 285.08C366.804 288.462 365.467 291.755 363.88 294.93C363.499 295.776 363.001 296.564 362.4 297.27C361.555 298.218 360.643 299.104 359.67 299.92C357.67 301.62 356.72 302.46 356.88 304.03C357.04 305.6 358.23 306.24 359.56 306.64C362.72 307.59 366.31 307.19 369.47 306.64C372.63 306.09 376.18 304.58 377.53 301.56C377.894 300.667 378.149 299.734 378.29 298.78C378.727 295.631 379.539 292.546 380.71 289.59C381.19 288.339 381.789 287.136 382.5 286C383.487 284.853 384.174 283.478 384.5 282C384.63 280.75 383.66 279 382.41 277.09C381.31 275.44 381.62 274.3 382 269.09C382.82 257.88 385.1 249.82 387 236.21C387.903 229.667 387.771 223.022 386.61 216.52C387.91 207.6 390.16 198.25 391.49 192.09C393.63 204.97 395.01 209.68 396.18 219.42C397.8 232.93 405.4 261.21 406.61 268.48C407.82 275.75 408.61 280.63 409.14 286.54C409.63 291.66 410.01 301.97 410.65 306.66C411.65 314.16 419.42 311.87 420.65 305.25C421.49 300.82 419.62 291.48 419.56 285.73Z" fill="#9C7248"/>
<path d="M384.46 279.36C383.55 277.74 382.71 277.28 381.82 275.89C380.81 276.793 380.087 277.971 379.74 279.28C379.35 280.57 378.32 286.9 376.74 291.93C375.57 295.71 373.61 297.71 370.91 298.74C369.218 299.379 367.391 299.582 365.6 299.33V299.33C362.25 298.87 363.03 296.46 363.03 296.46C362.25 297.53 359.03 300.13 357.17 302.05C356.1 303.13 356.6 304.79 357.42 305.85C358.35 306.65 360.53 308.26 368.53 307.1C375.63 306.1 377.3 302.79 377.97 301.31C378.673 299.139 379.165 296.905 379.44 294.64C379.843 292.154 380.686 289.76 381.93 287.57C382.09 287.3 382.25 287.04 382.4 286.82C382.88 286.12 383.4 285.34 384.08 284.57C384.58 283.97 384.97 283.69 385.08 283.11C385.339 281.826 385.119 280.492 384.46 279.36V279.36Z" fill="#37474F"/>
<path d="M369.38 117.77C369.57 121.31 371.16 131.45 371.16 131.45C385.61 141.23 406.66 130.95 406.66 130.95L410.6 106.95C410.6 106.95 402 98.11 409 87L397.53 86.26L385.27 86.2L379 86.07C374.58 89.31 367 97.6 365.55 101.23C364.1 104.86 363 110.21 369.38 117.77Z" fill="#E2FF96"/>
<g opacity="0.6">
<path opacity="0.6" d="M369.38 117.77C369.57 121.31 371.16 131.45 371.16 131.45C385.61 141.23 406.66 130.95 406.66 130.95L410.6 106.95C410.6 106.95 402 98.11 409 87L397.53 86.26L385.27 86.2L379 86.07C374.58 89.31 367 97.6 365.55 101.23C364.1 104.86 363 110.21 369.38 117.77Z" fill="white"/>
</g>
<path opacity="0.1" d="M383.56 117.18C384.81 118.81 390.61 120.8 395.39 118.68C397.164 117.951 398.711 116.763 399.873 115.237C401.035 113.711 401.769 111.904 402 110C402.34 112.152 401.929 114.355 400.836 116.24C399.744 118.124 398.036 119.576 396 120.35C388.68 123.3 383.94 118.81 383.56 117.18Z" fill="#263238"/>
<path d="M376 75.88C376 75.88 397.61 84.31 397.61 80.54C401.67 73.03 409.85 70.61 409.85 57.47C409.85 43.76 398.47 37.06 387.07 37.06C383.497 37.038 379.979 37.9421 376.86 39.6841C373.74 41.4261 371.125 43.9466 369.27 47C362.76 48.67 364.43 57.68 370.94 59.3L376 75.88Z" fill="#263238"/>
<path d="M404.5 37.67L403.43 43.39C403.806 43.4795 404.196 43.4925 404.577 43.4281C404.958 43.3637 405.322 43.2233 405.648 43.0153C405.974 42.8072 406.254 42.5357 406.473 42.2169C406.691 41.8982 406.843 41.5388 406.92 41.16C406.991 40.7719 406.984 40.3737 406.901 39.9881C406.817 39.6026 406.659 39.2373 406.434 38.9131C406.209 38.5889 405.923 38.3123 405.591 38.099C405.259 37.8856 404.888 37.7399 404.5 37.67V37.67Z" fill="#263238"/>
<path d="M409.8 42.43L403.9 43.06C403.927 43.4456 404.032 43.8218 404.208 44.1659C404.385 44.51 404.629 44.8149 404.926 45.0624C405.222 45.3099 405.566 45.4948 405.937 45.6061C406.307 45.7174 406.696 45.7527 407.08 45.71C407.869 45.6192 408.592 45.2274 409.099 44.6163C409.605 44.0051 409.857 43.2219 409.8 42.43V42.43Z" fill="#263238"/>
<path d="M397.56 87V70.31C397.56 70.31 399.71 72.44 402.85 70.14C405.67 68.08 406.85 63.64 404.85 61.36C403.45 59.74 399.12 58.85 397.42 62.36C397.42 62.36 392.42 62.12 385.86 57.47C379.3 52.82 377.75 48.72 373.74 48.26C371.85 49.7 370.02 53.93 370.21 65.12C370.36 73.39 374.06 77.34 375.95 78.76C377.5 79.91 379.47 80.08 382.8 79.53V87.37C382.8 87.37 373 97.09 380.9 97.83C392.38 98.89 397.56 87 397.56 87Z" fill="#9C7248"/>
<path d="M397.45 61.56V66.15C396.594 66.1554 395.771 65.8218 395.16 65.2223C394.549 64.6227 394.2 63.8058 394.19 62.95V58.52L397.45 61.56Z" fill="#263238"/>
<path d="M385.21 62.26C385.203 62.5567 385.283 62.8491 385.44 63.1005C385.598 63.3519 385.827 63.5513 386.097 63.6736C386.368 63.796 386.668 63.8359 386.961 63.7884C387.254 63.7409 387.527 63.6081 387.745 63.4066C387.963 63.2051 388.116 62.9438 388.187 62.6554C388.257 62.367 388.241 62.0643 388.14 61.7851C388.039 61.5059 387.858 61.2626 387.62 61.0856C387.382 60.9087 387.096 60.8058 386.8 60.79C386.395 60.7764 386.001 60.9232 385.703 61.1984C385.405 61.4736 385.228 61.855 385.21 62.26V62.26Z" fill="#263238"/>
<path d="M372.06 58L375.17 55.85C375.035 55.6433 374.86 55.4658 374.655 55.3278C374.45 55.1898 374.22 55.0943 373.978 55.0468C373.735 54.9992 373.486 55.0007 373.244 55.051C373.002 55.1014 372.773 55.1997 372.57 55.34C372.155 55.6293 371.869 56.0694 371.774 56.5663C371.679 57.0632 371.781 57.5777 372.06 58V58Z" fill="#263238"/>
<path d="M386.59 70.38L382.29 72C382.388 72.2841 382.542 72.5456 382.744 72.7688C382.945 72.992 383.189 73.1724 383.462 73.2993C383.734 73.4262 384.029 73.497 384.33 73.5074C384.63 73.5179 384.929 73.4677 385.21 73.36C385.782 73.1397 386.246 72.7056 386.503 72.1494C386.761 71.5932 386.792 70.9587 386.59 70.38V70.38Z" fill="#C98276"/>
<path d="M373.66 61.29C373.653 61.5867 373.733 61.8791 373.89 62.1305C374.048 62.3819 374.277 62.5813 374.547 62.7036C374.818 62.826 375.118 62.8659 375.411 62.8184C375.704 62.7709 375.977 62.6381 376.195 62.4366C376.413 62.2351 376.566 61.9738 376.637 61.6854C376.707 61.397 376.691 61.0943 376.59 60.8151C376.489 60.5359 376.308 60.2926 376.07 60.1156C375.832 59.9387 375.546 59.8358 375.25 59.82C374.845 59.8064 374.451 59.9532 374.153 60.2284C373.855 60.5036 373.678 60.885 373.66 61.29V61.29Z" fill="#263238"/>
<path d="M381.43 60.52L381.21 68.64L376.86 67.32L381.43 60.52Z" fill="#876127"/>
<path d="M382.83 79.5C386.35 79.05 393.58 77.01 394.71 74.21C394.251 75.636 393.364 76.886 392.17 77.79C390.01 79.6 382.83 81.65 382.83 81.65V79.5Z" fill="#926A2D"/>
<path d="M392.38 37.56C385.12 35.9 382.22 38.01 374.88 37.23C371.88 36.91 369.11 36.77 367.09 37.79C364.79 38.94 363.45 41.48 363.76 44.79C364.28 50.31 370.23 51.72 370.23 51.72C370.23 51.72 375.23 40.37 381.97 40.46C388.71 40.55 392.38 37.56 392.38 37.56Z" fill="#263238"/>
<path d="M369.06 260C368.97 258.5 368.89 257 368.84 255.64C368.47 246.64 367.48 228.43 366.84 216.1C365.69 195.28 371.2 131.47 371.2 131.47C371.2 131.47 375.47 134.78 387.68 134.67C394.184 134.591 400.621 133.338 406.68 130.97C406.68 133.88 408.96 137.11 410.21 139.29C412.62 143.49 415.34 146.35 418.01 154.94C421.12 164.94 420.18 192.17 417.61 218.51C420.04 231.62 420.53 238.16 420.61 245.01C420.61 254.01 420.52 258.67 420.08 267.2C415.75 270.44 406.67 268.48 406.67 268.48C405.46 261.21 397.86 232.93 396.24 219.42C395.07 209.68 393.69 204.97 391.55 192.09L386.6 216.5C387.761 223.002 387.893 229.647 386.99 236.19C385.6 246.09 383.99 253.05 382.93 260.42C381 262.45 371.94 263 369.06 260Z" fill="#455A64"/>
<path d="M370.86 129.46L370.73 136.56C370.73 136.56 375.41 140.14 383.99 140.71C392.57 141.28 404.62 137.91 407.99 135.39C407.003 133.243 406.689 130.848 407.09 128.52C400.532 131.921 393.202 133.558 385.82 133.27C373.77 132.7 370.86 129.46 370.86 129.46Z" fill="#37474F"/>
<path d="M391.48 192.07L386.48 162.48C386.48 162.48 378.65 160.48 374.48 154.04C375.046 156.419 376.165 158.632 377.746 160.498C379.327 162.364 381.326 163.831 383.58 164.78L389.2 192.49L387 213.72L391.48 192.07Z" fill="#37474F"/>
<path d="M425.86 159.57L425.64 158.57L425.54 158.64V158.58L422.32 157.12C422.04 158.3 421.72 159.88 421.4 161.65C415.49 165.89 405.54 173 405.54 173L411.14 197.37L431.14 182.82C431.539 182.545 431.816 182.125 431.91 181.65C432.53 179 427.25 163.57 425.86 159.57Z" fill="#E2FF96"/>
<path opacity="0.2" d="M425.86 159.57L425.64 158.57L425.54 158.64V158.58L422.32 157.12C422.04 158.3 421.72 159.88 421.4 161.65C415.49 165.89 405.54 173 405.54 173L411.14 197.37L431.14 182.82C431.539 182.545 431.816 182.125 431.91 181.65C432.53 179 427.25 163.57 425.86 159.57Z" fill="black"/>
<path d="M425.64 158.6L405.52 173.03L402.3 171.57L422.42 157.14L425.64 158.6Z" fill="#E2FF96"/>
<path opacity="0.2" d="M407.28 178.18C407.28 178.18 407.21 178.76 409.33 179C411.45 179.24 420.05 178.29 421.13 177.5C422.21 176.71 424.88 172.67 426.01 170.01C426.697 168.389 427.259 166.717 427.69 165.01L407.28 178.18Z" fill="black"/>
<path d="M402.3 171.57C401.03 176.87 401.43 191.3 402.13 193.22C402.83 195.14 404.51 196.06 406.13 196.8C407.75 197.54 411.13 199.11 411.87 196.08C412.61 193.05 405.52 173 405.52 173L402.3 171.57Z" fill="#E2FF96"/>
<path opacity="0.3" d="M402.3 171.57C401.03 176.87 401.43 191.3 402.13 193.22C402.83 195.14 404.51 196.06 406.13 196.8C407.75 197.54 411.13 199.11 411.87 196.08C412.61 193.05 405.52 173 405.52 173L402.3 171.57Z" fill="black"/>
<path d="M405.52 173C405.58 173.3 406.38 177 407.28 178.15C408.18 179.3 418.59 177.54 420.33 176.87C422.07 176.2 427.6 166.41 427.69 164.96C427.78 163.51 425.64 158.57 425.64 158.57L405.52 173Z" fill="#E2FF96"/>
<path opacity="0.1" d="M405.52 173C405.58 173.3 406.38 177 407.28 178.15C408.18 179.3 418.59 177.54 420.33 176.87C422.07 176.2 427.6 166.41 427.69 164.96C427.78 163.51 425.64 158.57 425.64 158.57L405.52 173Z" fill="black"/>
<path d="M419.75 175C419.84 175.46 420.2 175.57 420.54 175.26C420.716 175.08 420.849 174.862 420.927 174.623C421.005 174.383 421.027 174.129 420.99 173.88C420.89 173.43 420.54 173.32 420.19 173.63C420.013 173.807 419.88 174.023 419.804 174.262C419.727 174.5 419.709 174.753 419.75 175V175Z" fill="#455A64"/>
<path d="M405.52 173C399.6 162.1 383.73 134.59 379.44 117.73C375.15 100.87 379.95 91.09 382.83 86.04H379.76C376.23 90.37 372.88 101.4 375.88 115.45C380.14 135.34 402.3 171.54 402.3 171.54L405.52 173Z" fill="#E2FF96"/>
<path opacity="0.3" d="M405.52 173C399.6 162.1 383.73 134.59 379.44 117.73C375.15 100.87 379.95 91.09 382.83 86.04H379.76C376.23 90.37 372.88 101.4 375.88 115.45C380.14 135.34 402.3 171.54 402.3 171.54L405.52 173Z" fill="black"/>
<path d="M434.68 124.44C423.96 100.35 420.39 90.93 413.58 88.11C411.793 87.4256 409.911 87.0241 408 86.92C406.33 89.99 402.27 100.52 410.35 108.77C410.35 108.77 420 123.69 422.95 130.5C422.22 137.09 421.95 144.65 419.58 153.5C419.31 154.5 417.58 155.83 416.71 156.34C414.26 157.69 413.85 159.21 412.04 160.95C410.63 162.31 409.39 162.63 409.6 163.08C409.92 163.591 410.404 163.978 410.972 164.178C411.541 164.378 412.161 164.378 412.73 164.18C414.055 163.632 415.327 162.962 416.53 162.18C416.76 162.45 414.48 166.11 412.09 168.78C408.56 172.71 407.7 175.54 414.76 175.78C419.18 175.95 423.95 172.34 426.94 163.53C427.53 161.79 428.15 159.27 428.77 156.82C429.23 155.77 434.71 136.62 435.69 131.62C436.298 129.186 435.936 126.611 434.68 124.44V124.44Z" fill="#9C7248"/>
<defs>
<clipPath id="clip0">
<rect width="78" height="78" fill="white" transform="matrix(0.859344 -0.511398 0.871531 0.490341 145 400.889)"/>
</clipPath>
</defs>
</svg>
