<svg width="401" height="401" viewBox="0 0 401 401" fill="none" xmlns="http://www.w3.org/2000/svg">
<path d="M200.926 381.085C304.096 381.085 387.732 332.798 387.732 273.233C387.732 213.668 304.096 165.382 200.926 165.382C97.7558 165.382 14.1199 213.668 14.1199 273.233C14.1199 332.798 97.7558 381.085 200.926 381.085Z" fill="#F5F5F5"/>
<path d="M30.0278 280.273L152.047 350.752C152.634 351.053 153.284 351.21 153.944 351.21C154.603 351.21 155.253 351.053 155.84 350.752L359.324 233.271C360.374 232.67 360.374 231.667 359.324 231.082L237.336 160.603C236.749 160.302 236.099 160.146 235.44 160.146C234.78 160.146 234.13 160.302 233.544 160.603L30.0278 278.084C28.9774 278.686 28.9774 279.672 30.0278 280.273Z" fill="#E6E6E6"/>
<path d="M297.255 337.996C328.966 337.996 354.673 323.155 354.673 304.849C354.673 286.542 328.966 271.702 297.255 271.702C265.544 271.702 239.838 286.542 239.838 304.849C239.838 323.155 265.544 337.996 297.255 337.996Z" fill="#E6E6E6"/>
<path d="M143.139 249.035V329.368C143.158 329.73 143.263 330.082 143.444 330.395C143.625 330.709 143.878 330.975 144.182 331.172L146.395 332.455C146.718 332.617 147.075 332.702 147.437 332.702C147.799 332.702 148.156 332.617 148.479 332.455L150.692 331.172C150.996 330.975 151.249 330.709 151.43 330.395C151.612 330.082 151.716 329.73 151.735 329.368V249.035C151.735 248.369 151.27 248.105 150.692 248.433L148.479 249.716C148.156 249.878 147.799 249.963 147.437 249.963C147.075 249.963 146.718 249.878 146.395 249.716L144.182 248.433C143.604 248.105 143.139 248.369 143.139 249.035Z" fill="#37474F"/>
<path d="M148.479 332.455L150.692 331.172C150.996 330.975 151.249 330.709 151.43 330.395C151.611 330.082 151.716 329.73 151.735 329.368V249.035C151.735 248.369 151.27 248.105 150.692 248.433L148.479 249.716C148.176 249.913 147.923 250.179 147.741 250.493C147.56 250.807 147.456 251.159 147.437 251.52V331.854C147.437 332.519 147.902 332.752 148.479 332.455Z" fill="#455A64"/>
<path d="M48.686 194.471V274.805C48.7007 275.168 48.8014 275.522 48.9798 275.839C49.1583 276.155 49.4093 276.425 49.7124 276.625L51.9254 277.908C52.2489 278.07 52.6058 278.155 52.9677 278.155C53.3296 278.155 53.6865 278.07 54.0101 277.908L56.2231 276.625C56.5269 276.428 56.7798 276.162 56.961 275.848C57.1421 275.535 57.2465 275.182 57.2654 274.821V194.471C57.2654 193.806 56.8004 193.533 56.2231 193.87L54.0101 195.145C53.6877 195.311 53.3303 195.397 52.9677 195.397C52.6051 195.397 52.2477 195.311 51.9254 195.145L49.7124 193.87C49.1511 193.533 48.686 193.806 48.686 194.471Z" fill="#37474F"/>
<path d="M54.026 277.892L56.239 276.609C56.5428 276.412 56.7957 276.146 56.9769 275.832C57.1581 275.518 57.2624 275.166 57.2813 274.805V194.471C57.2813 193.806 56.8163 193.533 56.239 193.87L54.026 195.145C53.7226 195.342 53.4701 195.609 53.2889 195.922C53.1078 196.236 53.0032 196.587 52.9836 196.949V277.29C52.9836 277.948 53.4487 278.229 54.026 277.892Z" fill="#455A64"/>
<path d="M319.017 147.533V227.827C319.035 228.188 319.139 228.539 319.318 228.852C319.498 229.166 319.749 229.432 320.051 229.631L322.272 230.914C322.595 231.076 322.952 231.16 323.314 231.16C323.676 231.16 324.033 231.076 324.357 230.914L326.57 229.631C326.874 229.434 327.126 229.168 327.308 228.854C327.489 228.54 327.593 228.188 327.612 227.827V147.533C327.612 146.868 327.147 146.595 326.57 146.932L324.357 148.207C324.034 148.373 323.677 148.459 323.314 148.459C322.952 148.459 322.594 148.373 322.272 148.207L320.051 146.932C319.482 146.555 319.017 146.828 319.017 147.533Z" fill="#37474F"/>
<path d="M324.357 230.922L326.57 229.639C326.874 229.442 327.127 229.176 327.308 228.862C327.489 228.548 327.593 228.196 327.612 227.835V147.533C327.612 146.868 327.147 146.595 326.57 146.932L324.357 148.207C324.054 148.405 323.802 148.672 323.621 148.985C323.44 149.298 323.335 149.65 323.314 150.011V230.352C323.314 230.978 323.779 231.242 324.357 230.922Z" fill="#455A64"/>
<path d="M28.1355 201.816V201.054C28.1704 200.397 28.3599 199.758 28.6888 199.188C29.0176 198.618 29.4764 198.134 30.0278 197.775L233.511 80.2934C234.098 79.9929 234.748 79.8362 235.408 79.8362C236.067 79.8362 236.717 79.9929 237.304 80.2934L339.776 139.467C340.326 139.829 340.784 140.315 341.113 140.886C341.442 141.457 341.632 142.097 341.668 142.755V143.524C341.632 144.182 341.442 144.822 341.113 145.393C340.784 145.964 340.326 146.45 339.776 146.812L136.308 264.277C135.72 264.574 135.07 264.728 134.412 264.728C133.753 264.728 133.103 264.574 132.515 264.277L30.0278 205.095C29.4764 204.736 29.0176 204.252 28.6888 203.682C28.3599 203.112 28.1704 202.473 28.1355 201.816V201.816Z" fill="#597b06"/>
<g opacity="0.7">
<path opacity="0.7" d="M28.1355 201.816V201.054C28.1704 200.397 28.3599 199.758 28.6888 199.188C29.0176 198.618 29.4764 198.134 30.0278 197.775L233.511 80.2934C234.098 79.9929 234.748 79.8362 235.408 79.8362C236.067 79.8362 236.717 79.9929 237.304 80.2934L339.776 139.467C340.326 139.829 340.784 140.315 341.113 140.886C341.442 141.457 341.632 142.097 341.668 142.755V143.524C341.632 144.182 341.442 144.822 341.113 145.393C340.784 145.964 340.326 146.45 339.776 146.812L136.308 264.277C135.72 264.574 135.07 264.728 134.412 264.728C133.753 264.728 133.103 264.574 132.515 264.277L30.0278 205.095C29.4764 204.736 29.0176 204.252 28.6888 203.682C28.3599 203.112 28.1704 202.473 28.1355 201.816V201.816Z" fill="white"/>
</g>
<path d="M134.392 259.602V264.734C133.731 264.74 133.079 264.586 132.491 264.285L30.0278 205.103C29.4767 204.742 29.0182 204.256 28.6895 203.685C28.3608 203.114 28.171 202.474 28.1355 201.816V201.062C28.167 200.481 28.3195 199.912 28.5832 199.393C28.8469 198.874 29.216 198.416 29.667 198.047C28.9774 198.633 29.0977 199.451 30.0117 199.988L132.491 259.145C133.076 259.457 133.73 259.614 134.392 259.602V259.602Z" fill="#597b06"/>
<g opacity="0.6">
<path opacity="0.6" d="M134.392 259.602V264.734C133.731 264.74 133.079 264.586 132.491 264.285L30.0278 205.103C29.4767 204.742 29.0182 204.256 28.6895 203.685C28.3608 203.114 28.171 202.474 28.1355 201.816V201.062C28.167 200.481 28.3195 199.912 28.5832 199.393C28.8469 198.874 29.216 198.416 29.667 198.047C28.9774 198.633 29.0977 199.451 30.0117 199.988L132.491 259.145C133.076 259.457 133.73 259.614 134.392 259.602V259.602Z" fill="white"/>
</g>
<path d="M30.0278 199.964L132.499 259.145C133.087 259.442 133.737 259.597 134.396 259.597C135.054 259.597 135.704 259.442 136.292 259.145L339.776 141.656C340.818 141.055 340.818 140.052 339.776 139.467L237.336 80.2934C236.749 79.9929 236.099 79.8362 235.44 79.8362C234.78 79.8362 234.13 79.9929 233.544 80.2934L30.0278 197.775C28.9774 198.376 28.9774 199.354 30.0278 199.964Z" fill="#597b06"/>
<g opacity="0.8">
<path opacity="0.8" d="M30.0278 199.964L132.499 259.145C133.087 259.442 133.737 259.597 134.396 259.597C135.054 259.597 135.704 259.442 136.292 259.145L339.776 141.656C340.818 141.055 340.818 140.052 339.776 139.467L237.336 80.2934C236.749 79.9929 236.099 79.8362 235.44 79.8362C234.78 79.8362 234.13 79.9929 233.544 80.2934L30.0278 197.775C28.9774 198.376 28.9774 199.354 30.0278 199.964Z" fill="white"/>
</g>
<path opacity="0.05" d="M148.712 194.912L167.298 205.673C167.62 205.837 167.975 205.922 168.336 205.922C168.697 205.922 169.053 205.837 169.375 205.673L224.291 173.993C224.417 173.951 224.527 173.871 224.605 173.763C224.683 173.655 224.725 173.525 224.725 173.392C224.725 173.258 224.683 173.129 224.605 173.021C224.527 172.913 224.417 172.832 224.291 172.79L205.705 162.03C205.382 161.866 205.025 161.78 204.662 161.78C204.3 161.78 203.943 161.866 203.62 162.03L148.712 193.694C148.579 193.731 148.463 193.811 148.38 193.921C148.296 194.031 148.251 194.165 148.251 194.303C148.251 194.441 148.296 194.575 148.38 194.685C148.463 194.795 148.579 194.875 148.712 194.912V194.912Z" fill="black"/>
<path d="M223.168 170.906C223.156 170.776 223.11 170.652 223.034 170.546C222.958 170.441 222.855 170.357 222.735 170.305L205.264 160.226C204.941 160.06 204.584 159.973 204.221 159.973C203.859 159.973 203.501 160.06 203.179 160.226L149.939 191.04C149.82 191.092 149.716 191.175 149.64 191.281C149.564 191.387 149.518 191.511 149.506 191.641V193.469C149.519 193.599 149.565 193.722 149.641 193.828C149.717 193.934 149.82 194.017 149.939 194.07L167.394 204.149C167.718 204.311 168.075 204.396 168.437 204.396C168.799 204.396 169.155 204.311 169.479 204.149L222.767 173.384C222.886 173.331 222.989 173.247 223.065 173.141C223.141 173.036 223.188 172.912 223.2 172.782L223.168 170.906Z" fill="#EBEBEB"/>
<path d="M167.362 202.273L149.939 192.242C149.362 191.906 149.362 191.368 149.939 191.04L203.219 160.226C203.542 160.06 203.899 159.973 204.262 159.973C204.624 159.973 204.982 160.06 205.304 160.226L222.767 170.305C223.345 170.633 223.345 171.171 222.767 171.507L169.479 202.273C169.151 202.44 168.789 202.528 168.421 202.528C168.053 202.528 167.69 202.44 167.362 202.273V202.273Z" fill="white"/>
<path d="M168.332 202.522V204.39C167.992 204.388 167.657 204.306 167.354 204.149L149.939 194.038C149.82 193.985 149.717 193.902 149.641 193.796C149.565 193.69 149.519 193.567 149.506 193.437V191.633C149.519 191.762 149.565 191.886 149.641 191.992C149.717 192.098 149.82 192.181 149.939 192.234L167.386 202.273C167.678 202.427 168.002 202.512 168.332 202.522V202.522Z" fill="#E0E0E0"/>
<path d="M168.38 200.749L166.657 199.747L168.998 198.4L170.786 199.402L168.445 200.749H168.38ZM165.67 199.146L163.938 198.152L165.783 197.085L167.571 198.087L165.726 199.154L165.67 199.146ZM171.652 198.817L169.92 197.823L171.764 196.756L173.552 197.759L171.708 198.825L171.652 198.817ZM162.968 197.582L161.244 196.588L164.219 194.872L166.007 195.874L163.032 197.59L162.968 197.582ZM168.445 197.542H168.404L166.681 196.548L168.14 195.746L169.928 196.748L168.469 197.55L168.445 197.542ZM174.426 197.214H174.386L172.662 196.219L174.498 195.153L176.286 196.163L174.482 197.246L174.426 197.214ZM170.842 196.163H170.802L169.07 195.169L170.537 194.319L172.325 195.329L170.858 196.131L170.842 196.163ZM160.266 196.019L158.534 195.025L160.883 193.669L162.672 194.672L160.322 196.027L160.266 196.019ZM177.2 195.642L175.468 194.64L188.778 186.958L190.567 187.969L177.256 195.642H177.2ZM166.873 195.353L165.173 194.367L166.632 193.517L168.421 194.527L166.961 195.329L166.873 195.353ZM173.231 194.808H173.191L171.467 193.806L172.927 192.964L174.715 193.966L173.287 194.84L173.231 194.808ZM157.556 194.479L155.832 193.477L157.291 192.675L159.079 193.678L157.62 194.479H157.556ZM163.537 194.151H163.57L161.846 193.148L163.305 192.347L165.093 193.349L163.634 194.151H163.537ZM169.27 193.974H169.23L167.498 192.972L168.966 192.13L170.754 193.132L169.286 193.974H169.27ZM175.629 193.421H175.597L173.889 192.435L175.356 191.633L177.144 192.635L175.685 193.477L175.629 193.421ZM159.953 193.1H159.913L158.181 192.106L159.649 191.304L161.437 192.306L159.977 193.108L159.953 193.1ZM165.935 192.771H165.895L164.163 191.777L165.63 190.927L167.418 191.938L165.975 192.788L165.935 192.771ZM171.66 192.587L169.928 191.633L171.387 190.791L173.175 191.793L171.716 192.635L171.66 192.587ZM154.277 192.587L152.537 191.633L154.381 190.566L156.169 191.577L154.325 192.635L154.277 192.587ZM178.018 192.042H178.002L176.278 191.048L177.738 190.198L179.526 191.208L178.066 192.05L178.018 192.042ZM162.343 191.721L160.619 190.719L162.078 189.877L163.866 190.879L162.407 191.729L162.343 191.721ZM168.324 191.392H168.284L166.56 190.39L168.02 189.548L169.808 190.55L168.38 191.408L168.324 191.392ZM174.057 191.208H174.017L172.285 190.206L173.753 189.404L175.541 190.414L174.081 191.256L174.057 191.208ZM180.416 190.663H180.408L178.676 189.66L180.143 188.819L181.931 189.821L180.472 190.663H180.416ZM158.085 190.39L156.353 189.396L157.813 188.554L159.601 189.556L158.141 190.398L158.085 190.39ZM164.74 190.334H164.7L162.968 189.332L164.436 188.49L166.224 189.492L164.764 190.334H164.74ZM170.786 190.029H170.746L169.014 189.035L170.481 188.193L172.269 189.195L170.786 190.029ZM176.511 189.853L174.787 188.851L176.246 188.049L178.034 189.051L176.575 189.853H176.511ZM182.869 189.3L181.137 188.305L182.605 187.463L184.385 188.466L182.925 189.308L182.869 189.3ZM160.547 189.027H160.507L158.759 188.017L160.218 187.175L162.006 188.177L160.547 189.019V189.027ZM167.194 188.979L165.462 187.985L166.929 187.135L168.709 188.145L167.25 188.987L167.194 188.979ZM173.175 188.65L171.379 187.624L172.838 186.774L174.627 187.784L173.191 188.642L173.175 188.65ZM178.908 188.466H178.804L177.072 187.471L178.539 186.622L180.327 187.632L178.868 188.434L178.908 188.466ZM185.267 187.92H185.218L183.495 186.926L184.954 186.076L186.742 187.079L185.283 187.929L185.267 187.92ZM162.904 187.624L161.164 186.638L162.623 185.788L164.371 186.822L162.928 187.624H162.904ZM169.559 187.576H169.519L167.795 186.573L169.254 185.772L171.042 186.774L169.583 187.576H169.559ZM191.465 187.423L189.741 186.421L191.577 185.363L193.365 186.365L191.529 187.423H191.465ZM175.541 187.247H175.501L173.769 186.245L175.236 185.443L177.024 186.445L175.565 187.247H175.541ZM181.266 187.063L179.534 186.06L180.969 185.218L182.749 186.221L181.29 187.071L181.266 187.063ZM187.624 186.509L185.9 185.507L187.367 184.705L189.147 185.708L187.688 186.509H187.624ZM165.301 186.237L163.57 185.218L165.029 184.417L166.817 185.419L165.358 186.221L165.301 186.237ZM171.956 186.189H171.916L170.184 185.218L171.652 184.417L173.432 185.419L171.973 186.221L171.956 186.189ZM177.93 185.86L176.198 184.866L177.657 184.064L179.445 185.066L177.986 185.868L177.93 185.86ZM194.239 185.86H194.199L192.475 184.866L194.311 183.799L196.099 184.801L194.263 185.868L194.239 185.86ZM183.663 185.716H183.615L181.891 184.721L183.35 183.879L185.138 184.882L183.679 185.724L183.663 185.716ZM190.021 185.17H189.981L188.257 184.176L189.717 183.374L191.505 184.376L190.045 185.178L190.021 185.17ZM174.346 184.85H174.306L172.582 183.855L174.041 183.005L175.829 184.016L174.37 184.817L174.346 184.85ZM180.327 184.521H180.287L178.563 183.527L180.023 182.677L181.811 183.687L180.351 184.489L180.327 184.521ZM186.052 184.336L184.32 183.342L185.788 182.492L187.568 183.503L186.108 184.344L186.052 184.336ZM168.733 184.296L167.001 183.302L168.461 182.452L170.249 183.462L168.789 184.264L168.733 184.296ZM197.013 184.296H196.973L195.241 183.294L197.085 182.236L198.873 183.238L197.029 184.296H197.013ZM192.411 183.831L190.679 182.829L192.146 181.987L193.926 182.989L192.435 183.767L192.411 183.831ZM176.743 183.511H176.695L174.971 182.508L176.439 181.666L178.227 182.669L176.759 183.511H176.743ZM182.717 183.182L180.985 182.18L182.452 181.338L184.232 182.34L182.773 183.182H182.717ZM188.45 182.997H188.426L186.702 181.995L188.161 181.193L189.949 182.196L188.49 182.997H188.45ZM171.131 182.957H171.091L169.367 181.955L170.826 181.113L172.614 182.115L171.155 182.965L171.131 182.957ZM199.779 182.701L198.047 181.634L200.389 180.279L202.177 181.282L199.835 182.637L199.779 182.701ZM194.808 182.444H194.768L193.044 181.45L197.655 178.788L199.443 179.79L194.84 182.38L194.808 182.444ZM179.133 182.123L177.409 181.129L178.868 180.287L180.656 181.29L179.197 182.131L179.133 182.123ZM185.114 181.795H185.074L183.35 180.8L184.81 179.959L186.598 180.961L185.138 181.803L185.114 181.795ZM190.839 181.61L189.107 180.616L190.575 179.814L192.363 180.816L190.895 181.618L190.839 181.61ZM173.52 181.61L171.788 180.616L173.247 179.774L175.035 180.776L173.576 181.618L173.52 181.61ZM181.538 180.808H181.498L179.766 179.814L181.209 178.804L182.997 179.814L181.53 180.656L181.538 180.808ZM203.572 180.584L201.84 179.582L203.307 178.74L205.095 179.742L203.628 180.592L203.572 180.584ZM187.536 180.48H187.496L185.764 179.485L187.231 178.636L189.011 179.638L187.552 180.488L187.536 180.48ZM193.261 180.295H193.237L191.513 179.301L192.844 178.499C192.889 178.477 192.927 178.443 192.954 178.4C192.981 178.358 192.995 178.309 192.996 178.259C192.995 178.205 192.979 178.154 192.951 178.108C192.923 178.063 192.883 178.027 192.836 178.002L190.567 176.695L192.282 175.701L196.781 178.267L193.237 180.167L193.261 180.295ZM175.941 180.295H175.901L174.178 179.301L175.637 178.451L177.425 179.461L175.966 180.303L175.941 180.295ZM183.96 179.493L182.236 178.491L183.695 177.649L185.483 178.652L184.024 179.493H183.96ZM205.993 179.261H205.953L204.229 178.267L205.689 177.425L207.477 178.427L206.017 179.269L205.993 179.261ZM189.957 179.157H189.917L188.137 178.002L189.596 177.2L191.384 178.203L189.925 179.004L189.957 179.157ZM179.405 178.355L177.673 177.353L179.133 176.551L180.921 177.553L179.461 178.355H179.405ZM186.373 178.122H186.333L184.601 177.128L186.068 176.326L187.856 177.329L186.389 178.13L186.373 178.122ZM208.407 177.898H208.367L206.635 176.904L208.102 176.054L209.89 177.064L208.423 177.906L208.407 177.898ZM203.307 177.721H203.267L201.535 176.719L203.003 175.917L204.791 176.92L203.331 177.721H203.307ZM181.803 176.968L180.071 175.974L181.538 175.172L183.326 176.174L181.867 176.976L181.803 176.968ZM188.762 176.743L187.039 175.749L189.636 174.25L191.424 175.252L188.827 176.751L188.762 176.743ZM211.301 176.222L209.577 175.22L213.434 172.991L215.222 174.001L211.366 176.222H211.301ZM195.498 175.974H195.458L193.678 174.795L195.145 173.953L196.925 174.955L195.466 175.797L195.498 175.974ZM184.2 175.589L182.468 174.594L183.936 173.744L185.716 174.755L184.256 175.557L184.2 175.589ZM208.599 174.667L206.867 173.664L208.335 172.862L210.123 173.865L208.663 174.667H208.599ZM197.895 174.594H197.855L196.131 173.6L197.59 172.75L199.378 173.761L197.919 174.602L197.895 174.594ZM192.796 174.418L190.975 173.191L192.435 172.389L194.223 173.392L192.764 174.193L192.796 174.418ZM186.59 174.21L184.866 173.207L186.325 172.365L188.113 173.368L186.557 173.993L186.59 174.21ZM216.088 173.464H216.048L214.324 172.462L215.784 171.66L217.572 172.662L216.112 173.464H216.088ZM210.989 173.279H210.876L209.153 172.285L210.612 171.483L212.4 172.486L210.941 173.287L210.989 173.279ZM200.293 173.215L198.561 172.213L200.028 171.411L201.816 172.413L200.349 173.215H200.293ZM205.905 173.103L204.181 172.101L205.641 171.259L207.429 172.261L205.969 173.111L205.905 173.103ZM195.209 173.031H195.169L193.437 172.037L194.904 171.187L196.684 172.197L195.225 172.999L195.209 173.031ZM189.532 172.518L187.8 171.523L189.268 170.674L191.048 171.684L189.588 172.526L189.532 172.518ZM218.502 172.077H218.462L214.028 169.519L215.487 168.677L219.985 171.243L218.526 172.045L218.502 172.077ZM213.402 171.9H213.282L211.55 170.906L213.017 170.056L214.805 171.058L213.346 171.908L213.402 171.9ZM208.303 171.716H208.263L206.531 170.714L207.998 169.872L209.786 170.874L208.327 171.716H208.303ZM197.598 171.652L195.875 170.657L197.334 169.808L199.122 170.81L197.663 171.66L197.598 171.652ZM203.211 171.539H203.171L201.439 170.545L202.906 169.695L204.694 170.706L203.235 171.548L203.211 171.539ZM191.93 171.139H191.89L190.166 170.136L191.625 169.335L193.413 170.337L191.954 171.187L191.93 171.139ZM210.7 170.337L208.968 169.343L210.427 168.493L212.215 169.503L210.756 170.345L210.7 170.337ZM205.609 170.16H205.568L203.837 169.158L205.304 168.356L207.084 169.359L205.625 170.16H205.609ZM200.501 169.976L198.769 168.982L200.236 168.18L202.016 169.182L200.557 169.984L200.501 169.976ZM194.327 169.751L192.595 168.757L194.062 167.955L195.85 168.958L194.383 169.759L194.327 169.751ZM213.097 168.95H213.057L208.623 166.392L210.091 165.542L214.581 168.108L213.121 168.91L213.097 168.95ZM207.998 168.765H207.958L206.154 167.579L207.613 166.777L209.401 167.779L207.942 168.581L207.998 168.765ZM202.858 168.38L201.134 167.386L202.594 166.536L204.302 167.579L202.858 168.38ZM196.444 167.474L195.698 167.049L197.157 166.207L197.959 166.64L196.508 167.442L196.444 167.474ZM205.216 167.001H205.176L203.444 165.975L204.911 165.133L206.691 166.135L205.264 167.001H205.216ZM198.849 166.087H198.809L198.055 165.67L199.523 164.82L200.325 165.253L198.873 166.055L198.849 166.087ZM207.613 165.622H207.573L205.849 164.628L207.308 163.778L209.096 164.788L207.669 165.622H207.613ZM201.199 164.708H201.158L200.413 164.283L201.872 163.481L202.674 163.914L201.215 164.716L201.199 164.708ZM203.604 163.329H203.564L202.81 162.904L204.278 162.102L205.079 162.535L203.628 163.337L203.604 163.329Z" fill="#597b06"/>
<path opacity="0.5" d="M168.38 200.749L166.657 199.747L168.998 198.4L170.786 199.402L168.445 200.749H168.38ZM165.67 199.146L163.938 198.152L165.783 197.085L167.571 198.087L165.726 199.154L165.67 199.146ZM171.652 198.817L169.92 197.823L171.764 196.756L173.552 197.759L171.708 198.825L171.652 198.817ZM162.968 197.582L161.244 196.588L164.219 194.872L166.007 195.874L163.032 197.59L162.968 197.582ZM168.445 197.542H168.404L166.681 196.548L168.14 195.746L169.928 196.748L168.469 197.55L168.445 197.542ZM174.426 197.214H174.386L172.662 196.219L174.498 195.153L176.286 196.163L174.482 197.246L174.426 197.214ZM170.842 196.163H170.802L169.07 195.169L170.537 194.319L172.325 195.329L170.858 196.131L170.842 196.163ZM160.266 196.019L158.534 195.025L160.883 193.669L162.672 194.672L160.322 196.027L160.266 196.019ZM177.2 195.642L175.468 194.64L188.778 186.958L190.567 187.969L177.256 195.642H177.2ZM166.873 195.353L165.173 194.367L166.632 193.517L168.421 194.527L166.961 195.329L166.873 195.353ZM173.231 194.808H173.191L171.467 193.806L172.927 192.964L174.715 193.966L173.287 194.84L173.231 194.808ZM157.556 194.479L155.832 193.477L157.291 192.675L159.079 193.678L157.62 194.479H157.556ZM163.537 194.151H163.57L161.846 193.148L163.305 192.347L165.093 193.349L163.634 194.151H163.537ZM169.27 193.974H169.23L167.498 192.972L168.966 192.13L170.754 193.132L169.286 193.974H169.27ZM175.629 193.421H175.597L173.889 192.435L175.356 191.633L177.144 192.635L175.685 193.477L175.629 193.421ZM159.953 193.1H159.913L158.181 192.106L159.649 191.304L161.437 192.306L159.977 193.108L159.953 193.1ZM165.935 192.771H165.895L164.163 191.777L165.63 190.927L167.418 191.938L165.975 192.788L165.935 192.771ZM171.66 192.587L169.928 191.633L171.387 190.791L173.175 191.793L171.716 192.635L171.66 192.587ZM154.277 192.587L152.537 191.633L154.381 190.566L156.169 191.577L154.325 192.635L154.277 192.587ZM178.018 192.042H178.002L176.278 191.048L177.738 190.198L179.526 191.208L178.066 192.05L178.018 192.042ZM162.343 191.721L160.619 190.719L162.078 189.877L163.866 190.879L162.407 191.729L162.343 191.721ZM168.324 191.392H168.284L166.56 190.39L168.02 189.548L169.808 190.55L168.38 191.408L168.324 191.392ZM174.057 191.208H174.017L172.285 190.206L173.753 189.404L175.541 190.414L174.081 191.256L174.057 191.208ZM180.416 190.663H180.408L178.676 189.66L180.143 188.819L181.931 189.821L180.472 190.663H180.416ZM158.085 190.39L156.353 189.396L157.813 188.554L159.601 189.556L158.141 190.398L158.085 190.39ZM164.74 190.334H164.7L162.968 189.332L164.436 188.49L166.224 189.492L164.764 190.334H164.74ZM170.786 190.029H170.746L169.014 189.035L170.481 188.193L172.269 189.195L170.786 190.029ZM176.511 189.853L174.787 188.851L176.246 188.049L178.034 189.051L176.575 189.853H176.511ZM182.869 189.3L181.137 188.305L182.605 187.463L184.385 188.466L182.925 189.308L182.869 189.3ZM160.547 189.027H160.507L158.759 188.017L160.218 187.175L162.006 188.177L160.547 189.019V189.027ZM167.194 188.979L165.462 187.985L166.929 187.135L168.709 188.145L167.25 188.987L167.194 188.979ZM173.175 188.65L171.379 187.624L172.838 186.774L174.627 187.784L173.191 188.642L173.175 188.65ZM178.908 188.466H178.804L177.072 187.471L178.539 186.622L180.327 187.632L178.868 188.434L178.908 188.466ZM185.267 187.92H185.218L183.495 186.926L184.954 186.076L186.742 187.079L185.283 187.929L185.267 187.92ZM162.904 187.624L161.164 186.638L162.623 185.788L164.371 186.822L162.928 187.624H162.904ZM169.559 187.576H169.519L167.795 186.573L169.254 185.772L171.042 186.774L169.583 187.576H169.559ZM191.465 187.423L189.741 186.421L191.577 185.363L193.365 186.365L191.529 187.423H191.465ZM175.541 187.247H175.501L173.769 186.245L175.236 185.443L177.024 186.445L175.565 187.247H175.541ZM181.266 187.063L179.534 186.06L180.969 185.218L182.749 186.221L181.29 187.071L181.266 187.063ZM187.624 186.509L185.9 185.507L187.367 184.705L189.147 185.708L187.688 186.509H187.624ZM165.301 186.237L163.57 185.218L165.029 184.417L166.817 185.419L165.358 186.221L165.301 186.237ZM171.956 186.189H171.916L170.184 185.218L171.652 184.417L173.432 185.419L171.973 186.221L171.956 186.189ZM177.93 185.86L176.198 184.866L177.657 184.064L179.445 185.066L177.986 185.868L177.93 185.86ZM194.239 185.86H194.199L192.475 184.866L194.311 183.799L196.099 184.801L194.263 185.868L194.239 185.86ZM183.663 185.716H183.615L181.891 184.721L183.35 183.879L185.138 184.882L183.679 185.724L183.663 185.716ZM190.021 185.17H189.981L188.257 184.176L189.717 183.374L191.505 184.376L190.045 185.178L190.021 185.17ZM174.346 184.85H174.306L172.582 183.855L174.041 183.005L175.829 184.016L174.37 184.817L174.346 184.85ZM180.327 184.521H180.287L178.563 183.527L180.023 182.677L181.811 183.687L180.351 184.489L180.327 184.521ZM186.052 184.336L184.32 183.342L185.788 182.492L187.568 183.503L186.108 184.344L186.052 184.336ZM168.733 184.296L167.001 183.302L168.461 182.452L170.249 183.462L168.789 184.264L168.733 184.296ZM197.013 184.296H196.973L195.241 183.294L197.085 182.236L198.873 183.238L197.029 184.296H197.013ZM192.411 183.831L190.679 182.829L192.146 181.987L193.926 182.989L192.435 183.767L192.411 183.831ZM176.743 183.511H176.695L174.971 182.508L176.439 181.666L178.227 182.669L176.759 183.511H176.743ZM182.717 183.182L180.985 182.18L182.452 181.338L184.232 182.34L182.773 183.182H182.717ZM188.45 182.997H188.426L186.702 181.995L188.161 181.193L189.949 182.196L188.49 182.997H188.45ZM171.131 182.957H171.091L169.367 181.955L170.826 181.113L172.614 182.115L171.155 182.965L171.131 182.957ZM199.779 182.701L198.047 181.634L200.389 180.279L202.177 181.282L199.835 182.637L199.779 182.701ZM194.808 182.444H194.768L193.044 181.45L197.655 178.788L199.443 179.79L194.84 182.38L194.808 182.444ZM179.133 182.123L177.409 181.129L178.868 180.287L180.656 181.29L179.197 182.131L179.133 182.123ZM185.114 181.795H185.074L183.35 180.8L184.81 179.959L186.598 180.961L185.138 181.803L185.114 181.795ZM190.839 181.61L189.107 180.616L190.575 179.814L192.363 180.816L190.895 181.618L190.839 181.61ZM173.52 181.61L171.788 180.616L173.247 179.774L175.035 180.776L173.576 181.618L173.52 181.61ZM181.538 180.808H181.498L179.766 179.814L181.209 178.804L182.997 179.814L181.53 180.656L181.538 180.808ZM203.572 180.584L201.84 179.582L203.307 178.74L205.095 179.742L203.628 180.592L203.572 180.584ZM187.536 180.48H187.496L185.764 179.485L187.231 178.636L189.011 179.638L187.552 180.488L187.536 180.48ZM193.261 180.295H193.237L191.513 179.301L192.844 178.499C192.889 178.477 192.927 178.443 192.954 178.4C192.981 178.358 192.995 178.309 192.996 178.259C192.995 178.205 192.979 178.154 192.951 178.108C192.923 178.063 192.883 178.027 192.836 178.002L190.567 176.695L192.282 175.701L196.781 178.267L193.237 180.167L193.261 180.295ZM175.941 180.295H175.901L174.178 179.301L175.637 178.451L177.425 179.461L175.966 180.303L175.941 180.295ZM183.96 179.493L182.236 178.491L183.695 177.649L185.483 178.652L184.024 179.493H183.96ZM205.993 179.261H205.953L204.229 178.267L205.689 177.425L207.477 178.427L206.017 179.269L205.993 179.261ZM189.957 179.157H189.917L188.137 178.002L189.596 177.2L191.384 178.203L189.925 179.004L189.957 179.157ZM179.405 178.355L177.673 177.353L179.133 176.551L180.921 177.553L179.461 178.355H179.405ZM186.373 178.122H186.333L184.601 177.128L186.068 176.326L187.856 177.329L186.389 178.13L186.373 178.122ZM208.407 177.898H208.367L206.635 176.904L208.102 176.054L209.89 177.064L208.423 177.906L208.407 177.898ZM203.307 177.721H203.267L201.535 176.719L203.003 175.917L204.791 176.92L203.331 177.721H203.307ZM181.803 176.968L180.071 175.974L181.538 175.172L183.326 176.174L181.867 176.976L181.803 176.968ZM188.762 176.743L187.039 175.749L189.636 174.25L191.424 175.252L188.827 176.751L188.762 176.743ZM211.301 176.222L209.577 175.22L213.434 172.991L215.222 174.001L211.366 176.222H211.301ZM195.498 175.974H195.458L193.678 174.795L195.145 173.953L196.925 174.955L195.466 175.797L195.498 175.974ZM184.2 175.589L182.468 174.594L183.936 173.744L185.716 174.755L184.256 175.557L184.2 175.589ZM208.599 174.667L206.867 173.664L208.335 172.862L210.123 173.865L208.663 174.667H208.599ZM197.895 174.594H197.855L196.131 173.6L197.59 172.75L199.378 173.761L197.919 174.602L197.895 174.594ZM192.796 174.418L190.975 173.191L192.435 172.389L194.223 173.392L192.764 174.193L192.796 174.418ZM186.59 174.21L184.866 173.207L186.325 172.365L188.113 173.368L186.557 173.993L186.59 174.21ZM216.088 173.464H216.048L214.324 172.462L215.784 171.66L217.572 172.662L216.112 173.464H216.088ZM210.989 173.279H210.876L209.153 172.285L210.612 171.483L212.4 172.486L210.941 173.287L210.989 173.279ZM200.293 173.215L198.561 172.213L200.028 171.411L201.816 172.413L200.349 173.215H200.293ZM205.905 173.103L204.181 172.101L205.641 171.259L207.429 172.261L205.969 173.111L205.905 173.103ZM195.209 173.031H195.169L193.437 172.037L194.904 171.187L196.684 172.197L195.225 172.999L195.209 173.031ZM189.532 172.518L187.8 171.523L189.268 170.674L191.048 171.684L189.588 172.526L189.532 172.518ZM218.502 172.077H218.462L214.028 169.519L215.487 168.677L219.985 171.243L218.526 172.045L218.502 172.077ZM213.402 171.9H213.282L211.55 170.906L213.017 170.056L214.805 171.058L213.346 171.908L213.402 171.9ZM208.303 171.716H208.263L206.531 170.714L207.998 169.872L209.786 170.874L208.327 171.716H208.303ZM197.598 171.652L195.875 170.657L197.334 169.808L199.122 170.81L197.663 171.66L197.598 171.652ZM203.211 171.539H203.171L201.439 170.545L202.906 169.695L204.694 170.706L203.235 171.548L203.211 171.539ZM191.93 171.139H191.89L190.166 170.136L191.625 169.335L193.413 170.337L191.954 171.187L191.93 171.139ZM210.7 170.337L208.968 169.343L210.427 168.493L212.215 169.503L210.756 170.345L210.7 170.337ZM205.609 170.16H205.568L203.837 169.158L205.304 168.356L207.084 169.359L205.625 170.16H205.609ZM200.501 169.976L198.769 168.982L200.236 168.18L202.016 169.182L200.557 169.984L200.501 169.976ZM194.327 169.751L192.595 168.757L194.062 167.955L195.85 168.958L194.383 169.759L194.327 169.751ZM213.097 168.95H213.057L208.623 166.392L210.091 165.542L214.581 168.108L213.121 168.91L213.097 168.95ZM207.998 168.765H207.958L206.154 167.579L207.613 166.777L209.401 167.779L207.942 168.581L207.998 168.765ZM202.858 168.38L201.134 167.386L202.594 166.536L204.302 167.579L202.858 168.38ZM196.444 167.474L195.698 167.049L197.157 166.207L197.959 166.64L196.508 167.442L196.444 167.474ZM205.216 167.001H205.176L203.444 165.975L204.911 165.133L206.691 166.135L205.264 167.001H205.216ZM198.849 166.087H198.809L198.055 165.67L199.523 164.82L200.325 165.253L198.873 166.055L198.849 166.087ZM207.613 165.622H207.573L205.849 164.628L207.308 163.778L209.096 164.788L207.669 165.622H207.613ZM201.199 164.708H201.158L200.413 164.283L201.872 163.481L202.674 163.914L201.215 164.716L201.199 164.708ZM203.604 163.329H203.564L202.81 162.904L204.278 162.102L205.079 162.535L203.628 163.337L203.604 163.329Z" fill="black"/>
<path opacity="0.05" d="M130.174 169.302L110.634 158.013L208.343 101.606L227.891 112.887L130.174 169.302Z" fill="black"/>
<path d="M189.171 152.994L203.123 144.927C204.558 144.126 205.28 143.011 205.28 141.921V139.98L188.498 130.471C188.093 130.207 187.756 129.852 187.514 129.434C187.272 129.016 187.131 128.547 187.103 128.065V110.858L162.768 124.938V142.145C162.795 142.626 162.935 143.095 163.176 143.512C163.417 143.93 163.752 144.285 164.155 144.551L178.788 152.994C180.398 153.807 182.176 154.231 183.979 154.231C185.783 154.231 187.561 153.807 189.171 152.994Z" fill="#E6E6E6"/>
<path d="M168.589 145.184V147.116L164.123 144.543C163.717 144.28 163.38 143.925 163.139 143.507C162.898 143.089 162.76 142.619 162.736 142.137V124.938L167.378 122.26C167.474 123.439 167.579 124.666 167.675 125.844L164.419 127.737V141.175C164.445 141.657 164.584 142.126 164.825 142.544C165.066 142.962 165.402 143.317 165.807 143.58L168.589 145.184Z" fill="#E0E0E0"/>
<path d="M164.419 141.175C164.445 141.657 164.584 142.126 164.825 142.544C165.066 142.962 165.402 143.317 165.807 143.58L178.748 151.053C180.363 151.872 182.149 152.298 183.96 152.298C185.771 152.298 187.556 151.872 189.171 151.053L203.123 142.987C206.001 141.327 206.001 138.633 203.123 136.973L190.174 129.501C189.771 129.235 189.436 128.88 189.195 128.462C188.954 128.045 188.814 127.576 188.786 127.095V113.649L164.419 127.737V141.175Z" fill="#F5F5F5"/>
<path d="M193.004 131.136L190.174 129.533C189.77 129.268 189.434 128.913 189.193 128.495C188.953 128.077 188.813 127.609 188.786 127.127V113.649L164.419 127.737V141.175C164.445 141.657 164.584 142.126 164.825 142.544C165.066 142.962 165.402 143.317 165.807 143.58L168.589 145.184L193.004 131.136Z" fill="#EBEBEB"/>
<path d="M205.264 139.98V141.921C205.264 143.011 204.542 144.094 203.107 144.927L189.155 152.994C187.627 153.812 185.918 154.237 184.184 154.228V152.296C185.918 152.3 187.625 151.876 189.155 151.061L203.107 142.987C204.558 142.161 205.264 141.071 205.264 139.98Z" fill="#EBEBEB"/>
<path d="M125.29 159.729C125.817 159.984 126.397 160.111 126.982 160.1C127.567 160.089 128.141 159.94 128.658 159.665L222.903 105.262C223.407 104.931 223.826 104.487 224.127 103.965C224.428 103.442 224.602 102.857 224.635 102.255V19.7647C224.616 19.183 224.461 18.614 224.182 18.103C223.904 17.592 223.509 17.1533 223.031 16.822C222.506 16.5671 221.927 16.4401 221.344 16.4512C220.76 16.4624 220.187 16.6114 219.672 16.8861L125.403 71.2891C124.897 71.6187 124.476 72.0627 124.174 72.585C123.872 73.1073 123.697 73.6933 123.663 74.2958V156.786C123.684 157.37 123.843 157.94 124.126 158.451C124.409 158.963 124.807 159.4 125.29 159.729Z" fill="#455A64"/>
<path d="M128.659 159.665L222.904 105.262C223.409 104.933 223.829 104.489 224.13 103.966C224.431 103.444 224.604 102.857 224.635 102.255V19.7646C224.635 18.6581 223.834 18.2091 222.904 18.7624L128.659 73.1733C128.153 73.5013 127.733 73.9437 127.43 74.4647C127.128 74.9857 126.953 75.5707 126.919 76.1721V158.662C126.919 159.769 127.696 160.218 128.659 159.665Z" fill="#597b06"/>
<path d="M128.659 159.665L222.904 105.262C223.409 104.933 223.829 104.489 224.13 103.966C224.431 103.444 224.604 102.857 224.635 102.255V19.7646C224.635 18.6581 223.834 18.2091 222.904 18.7624L128.659 73.1733C128.153 73.5013 127.733 73.9437 127.43 74.4647C127.128 74.9857 126.953 75.5707 126.919 76.1721V158.662C126.919 159.769 127.696 160.218 128.659 159.665Z" fill="#37474F"/>
<path d="M128.402 159.801C127.898 160.076 127.329 160.212 126.755 160.192C126.181 160.173 125.623 160 125.139 159.691C124.655 159.382 124.262 158.949 124.003 158.436C123.743 157.924 123.626 157.351 123.663 156.778V147.533L126.919 149.418V158.695C126.919 159.681 127.56 160.138 128.402 159.801Z" fill="#E0E0E0"/>
<path d="M126.919 149.385V158.662C126.919 159.769 127.721 160.218 128.659 159.665L222.904 105.262C223.409 104.933 223.829 104.489 224.13 103.966C224.431 103.444 224.604 102.857 224.635 102.255V93.0101L126.919 149.385Z" fill="white"/>
<path d="M130.174 142.546V77.2626C130.194 76.9012 130.299 76.5496 130.48 76.2363C130.661 75.9229 130.913 75.6565 131.216 75.4585L220.33 24.0062C220.907 23.6775 221.372 23.9421 221.372 24.6076V89.8911C221.353 90.2527 221.249 90.6048 221.068 90.9183C220.886 91.2319 220.634 91.4981 220.33 91.6952L131.216 143.147C130.639 143.476 130.174 143.212 130.174 142.546Z" fill="#597b06"/>
<path opacity="0.5" d="M130.174 142.546V77.2626C130.194 76.9012 130.299 76.5496 130.48 76.2363C130.661 75.9229 130.913 75.6565 131.216 75.4585L220.33 24.0062C220.907 23.6775 221.372 23.9421 221.372 24.6076V89.8911C221.353 90.2527 221.249 90.6048 221.068 90.9183C220.886 91.2319 220.634 91.4981 220.33 91.6952L131.216 143.147C130.639 143.476 130.174 143.212 130.174 142.546Z" fill="white"/>
<path d="M135.45 76.7173L214.789 30.9098C215.366 30.5731 215.831 30.8457 215.831 31.5112V89.2817C215.813 89.6423 215.708 89.9932 215.527 90.3055C215.346 90.6178 215.093 90.8825 214.789 91.0778L135.45 136.893C134.873 137.222 134.407 136.949 134.407 136.292V78.5615C134.42 78.1929 134.521 77.8329 134.703 77.5118C134.884 77.1908 135.141 76.9183 135.45 76.7173Z" fill="#455A64"/>
<path d="M137.663 84.0539V120.376C137.663 120.6 137.815 120.689 138.008 120.576L143.829 117.217C143.928 117.149 144.01 117.059 144.07 116.955C144.129 116.851 144.165 116.735 144.174 116.615V80.2934C144.174 80.0769 144.021 79.9807 143.829 80.0929L138.008 83.4525C137.909 83.5206 137.827 83.6099 137.767 83.714C137.707 83.8181 137.672 83.9342 137.663 84.0539Z" fill="#263238"/>
<path d="M138.473 84.9118L140.397 83.8053C140.533 83.7171 140.654 83.8053 140.654 83.9497V86.1707C140.65 86.2606 140.625 86.3483 140.58 86.4265C140.535 86.5046 140.473 86.5709 140.397 86.6197L138.473 87.7342C138.328 87.8144 138.216 87.7342 138.216 87.5819V85.3608C138.22 85.2711 138.246 85.1836 138.29 85.1055C138.335 85.0275 138.397 84.9611 138.473 84.9118V84.9118Z" fill="#37474F"/>
<path d="M141.447 83.196L143.364 82.0895C143.508 82.0013 143.628 82.0895 143.628 82.2418V84.4548C143.623 84.5462 143.596 84.6351 143.55 84.7144C143.504 84.7937 143.44 84.8613 143.364 84.9118L141.447 86.0183C141.303 86.0985 141.183 86.0183 141.183 85.866V83.645C141.189 83.5546 141.216 83.4669 141.262 83.3889C141.308 83.3109 141.371 83.2448 141.447 83.196V83.196Z" fill="#37474F"/>
<path d="M138.473 88.2794L140.397 87.1729C140.533 87.0847 140.654 87.1729 140.654 87.3173V89.5383C140.65 89.6282 140.625 89.716 140.58 89.7941C140.535 89.8723 140.473 89.9385 140.397 89.9873L138.473 91.1018C138.328 91.182 138.216 91.1018 138.216 90.9495V88.7285C138.22 88.6385 138.245 88.5508 138.29 88.4726C138.334 88.3945 138.397 88.3282 138.473 88.2794Z" fill="#37474F"/>
<path d="M141.447 86.5956L143.364 85.4891C143.508 85.4009 143.628 85.4891 143.628 85.6334V87.8544C143.623 87.945 143.597 88.0329 143.55 88.111C143.504 88.1891 143.44 88.2551 143.364 88.3035L141.447 89.418C141.303 89.4982 141.183 89.418 141.183 89.2656V87.0446C141.189 86.9543 141.216 86.8665 141.262 86.7885C141.308 86.7105 141.371 86.6445 141.447 86.5956V86.5956Z" fill="#37474F"/>
<path d="M138.473 91.647L140.397 90.5325C140.533 90.4523 140.654 90.5325 140.654 90.6849V92.9059C140.65 92.9958 140.625 93.0836 140.58 93.1617C140.535 93.2398 140.473 93.3061 140.397 93.3549L138.473 94.4614C138.328 94.5496 138.216 94.4614 138.216 94.3171V92.0961C138.22 92.0061 138.245 91.9184 138.29 91.8402C138.334 91.7621 138.397 91.6958 138.473 91.647V91.647Z" fill="#37474F"/>
<path d="M141.447 89.9312L143.364 88.8166C143.508 88.7365 143.628 88.8166 143.628 88.969V91.19C143.623 91.2805 143.597 91.3685 143.55 91.4466C143.504 91.5247 143.44 91.5907 143.364 91.639L141.447 92.7535C141.303 92.8337 141.183 92.7535 141.183 92.6012V90.3802C141.188 90.2897 141.215 90.2017 141.261 90.1236C141.307 90.0455 141.371 89.9795 141.447 89.9312V89.9312Z" fill="#37474F"/>
<path d="M138.473 95.0147L140.397 93.9001C140.533 93.82 140.654 93.9001 140.654 94.0525V96.2735C140.649 96.3633 140.624 96.4508 140.579 96.5288C140.535 96.6069 140.472 96.6732 140.397 96.7225L138.473 97.821C138.328 97.9092 138.216 97.821 138.216 97.6767V95.4557C138.221 95.3671 138.247 95.281 138.291 95.2043C138.336 95.1277 138.398 95.0627 138.473 95.0147V95.0147Z" fill="#37474F"/>
<path d="M141.447 93.2988L143.364 92.2083C143.508 92.1281 143.628 92.2083 143.628 92.3607V94.5817C143.623 94.672 143.596 94.7597 143.55 94.8377C143.504 94.9157 143.44 94.9818 143.364 95.0307L141.447 96.1372C141.303 96.2254 141.183 96.1372 141.183 95.9929V93.7718C141.184 93.6772 141.209 93.5844 141.255 93.5018C141.301 93.4192 141.368 93.3494 141.447 93.2988V93.2988Z" fill="#37474F"/>
<path d="M138.473 98.3743L140.397 97.2678C140.533 97.1876 140.654 97.2678 140.654 97.4201V99.6331C140.649 99.724 140.624 99.8126 140.579 99.8919C140.535 99.9713 140.472 100.039 140.397 100.09L138.473 101.197C138.328 101.277 138.216 101.197 138.216 101.044V98.8313C138.22 98.7404 138.246 98.6518 138.29 98.5725C138.335 98.4931 138.397 98.4253 138.473 98.3743Z" fill="#37474F"/>
<path d="M141.447 96.6584L143.364 95.5519C143.508 95.4717 143.628 95.5519 143.628 95.7042V97.9252C143.621 98.0153 143.594 98.1025 143.548 98.1804C143.502 98.2582 143.439 98.3245 143.364 98.3743L141.447 99.4808C141.303 99.569 141.183 99.4808 141.183 99.3284V97.1154C141.189 97.024 141.216 96.9351 141.262 96.8558C141.307 96.7765 141.371 96.709 141.447 96.6584V96.6584Z" fill="#37474F"/>
<path d="M138.473 101.742L140.397 100.635C140.533 100.547 140.654 100.635 140.654 100.788V103.001C140.649 103.092 140.624 103.18 140.579 103.26C140.535 103.339 140.472 103.407 140.397 103.458L138.473 104.564C138.328 104.644 138.216 104.564 138.216 104.412V102.191C138.222 102.101 138.248 102.014 138.292 101.936C138.337 101.859 138.398 101.792 138.473 101.742Z" fill="#37474F"/>
<path d="M141.447 100.026L143.364 98.9195C143.508 98.8393 143.628 98.9195 143.628 99.0718V101.285C143.623 101.376 143.596 101.465 143.55 101.544C143.504 101.624 143.44 101.691 143.364 101.742L141.447 102.848C141.303 102.929 141.183 102.848 141.183 102.696V100.483C141.189 100.392 141.216 100.303 141.262 100.223C141.307 100.144 141.371 100.077 141.447 100.026Z" fill="#37474F"/>
<path d="M138.473 105.109L140.397 104.003C140.533 103.915 140.654 104.003 140.654 104.147V106.368C140.65 106.458 140.625 106.546 140.58 106.624C140.535 106.702 140.473 106.769 140.397 106.817L138.473 107.932C138.328 108.012 138.216 107.932 138.216 107.779V105.558C138.22 105.469 138.246 105.381 138.29 105.303C138.335 105.225 138.397 105.159 138.473 105.109V105.109Z" fill="#37474F"/>
<path d="M141.447 103.434L143.364 102.327C143.508 102.239 143.628 102.327 143.628 102.48V104.693C143.623 104.783 143.597 104.871 143.55 104.949C143.504 105.027 143.44 105.093 143.364 105.142L141.447 106.256C141.303 106.336 141.183 106.256 141.183 106.104V103.883C141.189 103.792 141.216 103.705 141.262 103.627C141.308 103.549 141.371 103.483 141.447 103.434Z" fill="#37474F"/>
<path d="M138.473 108.477L140.397 107.371C140.533 107.282 140.654 107.371 140.654 107.515V109.736C140.65 109.826 140.625 109.914 140.58 109.992C140.535 110.07 140.473 110.136 140.397 110.185L138.473 111.299C138.328 111.38 138.216 111.299 138.216 111.147V108.926C138.22 108.836 138.245 108.748 138.29 108.67C138.334 108.592 138.397 108.526 138.473 108.477V108.477Z" fill="#37474F"/>
<path d="M141.447 106.761L143.364 105.655C143.508 105.566 143.628 105.655 143.628 105.799V108.02C143.623 108.111 143.597 108.198 143.55 108.277C143.504 108.355 143.44 108.421 143.364 108.469L141.447 109.584C141.303 109.664 141.183 109.584 141.183 109.431V107.21C141.188 107.12 141.215 107.032 141.261 106.954C141.307 106.876 141.371 106.81 141.447 106.761V106.761Z" fill="#37474F"/>
<path d="M138.601 112.695L141.463 111.043C141.68 110.915 141.856 111.043 141.856 111.267V114.571C141.849 114.706 141.81 114.838 141.742 114.955C141.673 115.072 141.578 115.172 141.463 115.244L138.601 116.904C138.384 117.024 138.216 116.904 138.216 116.68V113.368C138.222 113.233 138.259 113.102 138.326 112.984C138.393 112.867 138.487 112.768 138.601 112.695V112.695Z" fill="#E0E0E0"/>
<path d="M143.075 113.256V115.974C143.062 116.033 143.031 116.086 142.987 116.126L140.638 117.481V114.771C140.651 114.713 140.682 114.66 140.726 114.619L143.075 113.256ZM143.46 112.39C143.401 112.392 143.343 112.408 143.292 112.438L140.421 114.098C140.308 114.171 140.214 114.27 140.147 114.388C140.08 114.505 140.042 114.636 140.036 114.771V118.075C140.036 118.251 140.125 118.355 140.245 118.355C140.308 118.354 140.369 118.335 140.421 118.299L143.292 116.648C143.404 116.573 143.497 116.473 143.564 116.356C143.631 116.239 143.669 116.108 143.677 115.974V112.663C143.677 112.486 143.588 112.39 143.46 112.39V112.39Z" fill="#455A64"/>
<path d="M149.137 82.8993L194.519 56.6961C195.482 56.1428 196.259 56.5919 196.259 57.6984V91.3183C196.227 91.9211 196.052 92.5077 195.75 93.0302C195.447 93.5527 195.026 93.9964 194.519 94.3251L149.137 120.504C148.183 121.057 147.405 120.608 147.405 119.502V85.9061C147.438 85.3043 147.612 84.7187 147.913 84.1964C148.214 83.6742 148.633 83.2299 149.137 82.8993V82.8993Z" fill="#37474F"/>
<path d="M215.831 31.5032C215.831 30.8457 215.358 30.5811 214.789 30.9098L135.45 76.7173C135.146 76.9143 134.893 77.1805 134.712 77.4941C134.531 77.8077 134.426 78.1597 134.407 78.5214V82.9554L215.831 35.9452V31.5032Z" fill="#37474F"/>
<path d="M175.773 124.938C175.304 125.251 174.915 125.669 174.637 126.159C174.358 126.649 174.198 127.198 174.169 127.761C174.169 128.803 174.899 129.22 175.773 128.707C176.242 128.394 176.631 127.976 176.909 127.486C177.188 126.996 177.348 126.447 177.377 125.884C177.401 124.842 176.671 124.425 175.773 124.938Z" fill="#455A64"/>
<path d="M127.432 74.4562C127.123 74.9806 126.947 75.5723 126.919 76.1801V149.393L123.663 147.533V74.2958C123.688 73.6899 123.864 73.0998 124.176 72.58L127.432 74.4562Z" fill="#263238"/>
<path opacity="0.05" d="M213.723 156.289L255.834 131.97C256.056 131.86 256.3 131.803 256.548 131.803C256.795 131.803 257.039 131.86 257.261 131.97L282.63 146.619C283.023 146.844 283.023 147.213 282.63 147.421L240.543 171.756C240.322 171.866 240.077 171.924 239.83 171.924C239.582 171.924 239.338 171.866 239.116 171.756L213.755 157.107C213.322 156.882 213.322 156.514 213.723 156.289Z" fill="black"/>
<path d="M214.412 153.667L255.369 130.022C255.585 129.918 255.822 129.864 256.062 129.864C256.302 129.864 256.539 129.918 256.756 130.022L281.436 144.262C281.638 144.394 281.807 144.571 281.928 144.78C282.049 144.989 282.119 145.223 282.133 145.465V145.745C282.119 145.986 282.049 146.221 281.928 146.43C281.807 146.639 281.638 146.816 281.436 146.948L240.487 170.593C240.271 170.697 240.034 170.751 239.794 170.751C239.553 170.751 239.316 170.697 239.1 170.593L214.412 156.353C214.211 156.221 214.043 156.043 213.924 155.834C213.804 155.625 213.735 155.391 213.723 155.151V154.87C213.737 154.63 213.806 154.396 213.926 154.187C214.046 153.979 214.212 153.801 214.412 153.667V153.667Z" fill="#597b06"/>
<path d="M214.412 153.667L255.369 130.022C255.585 129.918 255.822 129.864 256.063 129.864C256.303 129.864 256.54 129.918 256.756 130.022L281.436 144.262C281.821 144.486 281.821 144.847 281.436 145.064L240.487 168.709C240.273 168.82 240.035 168.877 239.794 168.877C239.553 168.877 239.315 168.82 239.1 168.709L214.429 154.469C214.345 154.441 214.272 154.389 214.219 154.318C214.167 154.247 214.138 154.162 214.136 154.074C214.135 153.986 214.16 153.899 214.21 153.826C214.259 153.754 214.33 153.698 214.412 153.667V153.667Z" fill="#597b06"/>
<g opacity="0.2">
<path opacity="0.2" d="M214.412 153.667L255.369 130.022C255.585 129.918 255.822 129.864 256.063 129.864C256.303 129.864 256.54 129.918 256.756 130.022L281.436 144.262C281.821 144.486 281.821 144.847 281.436 145.064L240.487 168.709C240.273 168.82 240.035 168.877 239.794 168.877C239.553 168.877 239.315 168.82 239.1 168.709L214.429 154.469C214.345 154.441 214.272 154.389 214.219 154.318C214.167 154.247 214.138 154.162 214.136 154.074C214.135 153.986 214.16 153.899 214.21 153.826C214.259 153.754 214.33 153.698 214.412 153.667V153.667Z" fill="black"/>
</g>
<path d="M255.361 133.79C255.577 133.682 255.816 133.625 256.058 133.625C256.301 133.625 256.539 133.682 256.756 133.79C259.811 135.53 271.878 142.522 274.909 144.278C275.294 144.494 275.294 144.855 274.909 145.08C270.9 147.381 250.951 158.895 246.982 161.196C246.767 161.305 246.529 161.361 246.288 161.361C246.047 161.361 245.81 161.305 245.595 161.196L227.442 150.741C227.057 150.524 227.057 150.163 227.442 149.939L255.361 133.79Z" fill="#455A64"/>
<path d="M230.008 157.155C228.789 157.853 228.789 158.999 230.008 159.705C230.692 160.049 231.447 160.228 232.213 160.228C232.978 160.228 233.733 160.049 234.418 159.705C235.644 158.999 235.644 157.853 234.418 157.155C233.735 156.807 232.979 156.626 232.213 156.626C231.446 156.626 230.691 156.807 230.008 157.155Z" fill="#37474F"/>
<path d="M236.863 159.801L234.883 160.956C234.313 161.284 234.209 161.757 234.658 162.03C234.956 162.153 235.279 162.204 235.6 162.18C235.922 162.157 236.233 162.059 236.51 161.894L238.499 160.739C239.068 160.41 239.172 159.937 238.723 159.673C238.425 159.546 238.101 159.492 237.778 159.514C237.455 159.537 237.141 159.635 236.863 159.801V159.801Z" fill="#37474F"/>
<path d="M239.18 161.164L237.2 162.319C236.623 162.655 236.518 163.121 236.967 163.393C237.267 163.516 237.591 163.567 237.914 163.544C238.236 163.52 238.549 163.422 238.828 163.257L240.808 162.102C241.385 161.773 241.49 161.3 241.033 161.036C240.735 160.911 240.413 160.858 240.091 160.88C239.77 160.903 239.458 161 239.18 161.164Z" fill="#37474F"/>
<path d="M241.49 162.479L239.509 163.634C238.94 163.97 238.836 164.436 239.285 164.708C239.582 164.831 239.905 164.883 240.226 164.861C240.547 164.838 240.859 164.742 241.137 164.58L243.117 163.417C243.695 163.088 243.799 162.615 243.35 162.351C243.051 162.229 242.727 162.177 242.405 162.199C242.082 162.221 241.769 162.317 241.49 162.479Z" fill="#37474F"/>
<path d="M223.569 152.16L221.588 153.314C221.011 153.643 220.907 154.116 221.364 154.381C221.661 154.505 221.984 154.558 222.305 154.536C222.627 154.514 222.939 154.417 223.216 154.253L225.197 153.098C225.774 152.761 225.878 152.296 225.429 152.023C225.13 151.901 224.806 151.849 224.483 151.873C224.16 151.897 223.847 151.995 223.569 152.16Z" fill="#37474F"/>
<path d="M225.886 153.499L223.898 154.653C223.329 154.982 223.224 155.455 223.673 155.72C223.972 155.846 224.296 155.9 224.619 155.878C224.942 155.856 225.255 155.758 225.534 155.591L227.514 154.437C228.083 154.108 228.188 153.635 227.738 153.362C227.44 153.24 227.118 153.188 226.796 153.212C226.475 153.236 226.163 153.334 225.886 153.499V153.499Z" fill="#37474F"/>
<path d="M228.195 154.838L226.215 155.992C225.638 156.321 225.533 156.794 225.99 157.067C226.289 157.189 226.611 157.241 226.933 157.217C227.254 157.194 227.566 157.095 227.843 156.931L229.823 155.776C230.4 155.447 230.505 154.974 230.056 154.71C229.757 154.585 229.433 154.532 229.11 154.554C228.788 154.576 228.474 154.674 228.195 154.838V154.838Z" fill="#37474F"/>
<g opacity="0.3">
<path opacity="0.3" d="M239.742 168.878V170.786C239.5 170.789 239.26 170.734 239.044 170.625L214.412 156.353C214.209 156.223 214.039 156.046 213.918 155.837C213.796 155.627 213.727 155.392 213.715 155.15V154.878C213.727 154.663 213.784 154.453 213.882 154.261C213.98 154.069 214.117 153.9 214.284 153.763C214.036 153.98 214.076 154.277 214.412 154.477L239.076 168.717C239.281 168.825 239.51 168.88 239.742 168.878V168.878Z" fill="black"/>
</g>
<g opacity="0.5">
<path opacity="0.5" d="M282.117 145.465V145.745C282.104 145.986 282.033 146.221 281.912 146.43C281.791 146.639 281.622 146.816 281.42 146.948L240.471 170.593C240.257 170.706 240.016 170.761 239.774 170.754V168.877C240.017 168.883 240.257 168.825 240.471 168.709L281.436 145.064C281.773 144.871 281.813 144.575 281.564 144.35C281.726 144.49 281.858 144.66 281.953 144.852C282.048 145.043 282.104 145.251 282.117 145.465Z" fill="black"/>
</g>
<path d="M231.234 30.1801L186.678 55.9103C186.374 56.1073 186.121 56.3735 185.94 56.6871C185.759 57.0006 185.654 57.3527 185.635 57.7143V100.162C185.655 100.524 185.759 100.876 185.941 101.189C186.122 101.502 186.374 101.769 186.678 101.966L187.343 102.351C187.667 102.513 188.024 102.598 188.385 102.598C188.747 102.598 189.104 102.513 189.428 102.351L233.984 76.621C234.285 76.4212 234.535 76.1542 234.715 75.8411C234.894 75.5279 234.998 75.1773 235.019 74.817V32.3611C234.999 31.9995 234.895 31.6478 234.714 31.3343C234.532 31.0208 234.28 30.7545 233.976 30.557L233.319 30.1801C232.997 30.0141 232.639 29.9276 232.277 29.9276C231.914 29.9276 231.557 30.0141 231.234 30.1801V30.1801Z" fill="#E0E0E0"/>
<path d="M234.979 32.0724C234.85 31.6395 234.45 31.5032 233.976 31.7838L189.428 57.4979C189.115 57.6953 188.861 57.972 188.69 58.2997L185.948 56.6961C186.116 56.3689 186.368 56.0922 186.678 55.8943L231.234 30.1641C231.558 30.0019 231.915 29.9174 232.277 29.9174C232.639 29.9174 232.995 30.0019 233.319 30.1641L233.976 30.549C234.239 30.7209 234.463 30.9448 234.636 31.2068C234.808 31.4689 234.925 31.7635 234.979 32.0724Z" fill="white"/>
<path d="M233.976 31.7598L189.428 57.4899C189.126 57.6958 188.878 57.9704 188.704 58.2911C188.53 58.6117 188.434 58.9692 188.426 59.3341V101.83C188.426 102.488 188.891 102.76 189.468 102.431L234.025 76.7013C234.325 76.5015 234.575 76.2345 234.755 75.9213C234.934 75.6082 235.038 75.2576 235.059 74.8972V32.3611C235.019 31.6956 234.554 31.431 233.976 31.7598Z" fill="#F5F5F5"/>
<path d="M191.128 59.6788L232.277 35.9131V73.9511L191.128 97.7168V59.6788Z" fill="white"/>
<path d="M268.607 260.3C268.607 260.14 269.529 250.791 269.529 250.791C269.529 250.791 268.863 251.753 263.467 251.272C261.417 251.018 259.399 250.551 257.446 249.877L257.093 256.66C256.147 259.41 251.392 259.065 246.3 259.322C245.442 259.37 244.561 259.37 243.67 259.37H243.614C240.896 259.683 238.467 261.775 241.658 263.588C244.849 265.4 249.628 265.48 254.03 265.52C259.298 265.576 268.543 265.544 268.607 260.3Z" fill="#9C7248"/>
<path opacity="0.9" d="M232.605 265.648C232.387 266.576 232.42 267.544 232.702 268.455C232.974 269.433 236.013 272.383 240.72 273.706C245.426 275.029 250.814 274.244 253.452 274.508C256.09 274.773 258.648 275.855 261.735 276.064C264.822 276.272 267.821 276.16 270.459 273.698C270.86 272.76 271.132 270.708 270.924 270.547C270.355 270.146 232.605 265.648 232.605 265.648Z" fill="#263238"/>
<path d="M256.443 257.662C254.751 259.314 250.638 259.073 246.284 259.322C242.171 259.546 237.392 258.913 234.818 260.332C232.245 261.751 231.796 264.951 236.206 268.454C237.48 269.465 238.908 270.804 240.303 271.349C244.921 273.161 249.772 272.223 252.859 272.447C256.868 272.736 259.274 274.051 262.914 273.883C267.612 273.626 270.331 271.942 270.932 270.579C271.533 269.216 270.555 259.153 268.615 259.699C268.615 259.699 268.334 263.05 260.268 261.222C256.732 260.42 256.435 258.408 256.443 257.662Z" fill="#597b06"/>
<path opacity="0.5" d="M256.443 257.662C254.751 259.314 250.638 259.073 246.284 259.322C242.171 259.546 237.392 258.913 234.818 260.332C232.245 261.751 231.796 264.951 236.206 268.454C237.48 269.465 238.908 270.804 240.303 271.349C244.921 273.161 249.772 272.223 252.859 272.447C256.868 272.736 259.274 274.051 262.914 273.883C267.612 273.626 270.331 271.942 270.932 270.579C271.533 269.216 270.555 259.153 268.615 259.699C268.615 259.699 268.334 263.05 260.268 261.222C256.732 260.42 256.435 258.408 256.443 257.662Z" fill="black"/>
<path d="M240.303 271.349C240.303 271.349 238.699 260.926 244.64 259.37H245.402C245.402 259.37 245.282 258.656 242.949 258.48C238.459 258.127 235.636 258.688 233.752 260.621C233.191 261.303 232.794 262.103 232.589 262.962C232.385 263.821 232.38 264.715 232.573 265.576C233.151 267.564 235.468 269.89 240.303 271.349Z" fill="white"/>
<path d="M244.552 265.183C244.552 265.183 244.272 260.917 247.174 259.274C247.43 259.099 247.729 259 248.038 258.987C248.347 258.974 248.653 259.049 248.922 259.202C248.922 259.202 246.116 260.116 246.02 265.191C246.02 265.191 245.923 265.544 245.282 265.536C245.081 265.536 244.6 265.536 244.552 265.183Z" fill="white"/>
<path d="M251.632 259.081C251.632 259.081 251.632 258.937 250.831 258.929C250.544 258.919 250.263 259.004 250.029 259.17C250.029 259.17 247.888 260.565 248.209 265.023C248.263 265.19 248.371 265.335 248.516 265.435C248.661 265.535 248.835 265.585 249.011 265.576C249.098 265.59 249.188 265.585 249.274 265.563C249.36 265.541 249.44 265.502 249.511 265.448C249.581 265.394 249.64 265.327 249.683 265.249C249.727 265.172 249.755 265.087 249.764 264.999C249.764 264.999 249.476 260.308 251.632 259.081Z" fill="white"/>
<path d="M254.174 258.745C254.174 258.745 253.998 258.504 253.453 258.6C252.771 258.721 252.651 259.009 252.651 259.009C252.651 259.009 251.288 260.982 251.897 264.622C251.897 264.622 251.937 265.255 252.811 265.167C253.685 265.079 253.445 264.405 253.445 264.405C253.445 264.405 252.907 259.715 254.174 258.745Z" fill="white"/>
<path d="M256.58 199.884C256.195 209.241 256.508 252.739 256.508 252.739C256.508 252.739 262.257 257.55 269.505 255.072L274.003 205.135L256.58 199.884Z" fill="#37474F"/>
<path d="M242.853 276.328C242.853 276.168 244.561 267.244 244.561 267.244C244.561 267.244 242.861 268.382 237.456 268.046C235.644 267.913 233.853 267.577 232.116 267.043L231.242 273.618C230.384 276.392 225.63 276.16 220.538 276.601C219.688 276.681 218.798 276.713 217.908 276.737H217.86C215.142 277.13 212.785 279.287 216.032 281.011C219.279 282.735 224.05 282.663 228.452 282.574C233.736 282.494 242.949 281.572 242.853 276.328Z" fill="#9C7248"/>
<path opacity="0.9" d="M207.06 283.368C206.868 284.303 206.932 285.273 207.244 286.175C207.541 287.145 210.668 289.999 215.398 291.178C220.129 292.356 225.509 291.41 228.155 291.627C230.801 291.843 233.391 292.814 236.478 292.934C239.565 293.054 242.564 292.846 245.13 290.296C245.498 289.35 245.715 287.289 245.498 287.137C244.929 286.72 207.06 283.368 207.06 283.368Z" fill="#263238"/>
<path d="M230.641 274.669C229.037 276.368 224.884 276.272 220.538 276.625C216.441 276.986 211.638 276.489 209.104 277.988C206.571 279.487 206.226 282.703 210.708 286.062C212.015 287.041 213.482 288.331 214.894 288.837C219.56 290.504 224.387 289.422 227.482 289.55C231.491 289.719 233.937 290.985 237.569 290.681C242.259 290.288 244.921 288.516 245.467 287.137C246.012 285.758 244.745 275.727 242.821 276.328C242.821 276.328 242.644 279.696 234.522 278.108C231.01 277.427 230.657 275.414 230.641 274.669Z" fill="#597b06"/>
<path opacity="0.5" d="M230.641 274.669C229.037 276.368 224.884 276.272 220.538 276.625C216.441 276.986 211.638 276.489 209.104 277.988C206.571 279.487 206.226 282.703 210.708 286.062C212.015 287.041 213.482 288.331 214.894 288.837C219.56 290.504 224.387 289.422 227.482 289.55C231.491 289.719 233.937 290.985 237.569 290.681C242.259 290.288 244.921 288.516 245.467 287.137C246.012 285.758 244.745 275.727 242.821 276.328C242.821 276.328 242.644 279.696 234.522 278.108C231.01 277.427 230.657 275.414 230.641 274.669Z" fill="black"/>
<path d="M214.925 288.837C214.925 288.837 213.041 278.413 218.894 276.729L219.696 276.681C219.696 276.681 219.552 275.968 217.211 275.879C212.712 275.663 209.906 276.312 208.078 278.285C207.54 278.984 207.169 279.796 206.992 280.661C206.816 281.525 206.839 282.418 207.06 283.272C207.669 285.269 210.075 287.522 214.925 288.837Z" fill="white"/>
<path d="M219.007 282.542C219.007 282.542 218.59 278.285 221.412 276.553C221.663 276.371 221.96 276.263 222.269 276.242C222.578 276.221 222.887 276.287 223.16 276.433C223.16 276.433 220.378 277.427 220.434 282.51C220.434 282.51 220.354 282.863 219.704 282.879C219.52 282.879 219.047 282.887 219.007 282.542Z" fill="white"/>
<path d="M225.878 276.224C225.878 276.224 225.878 276.088 225.076 276.096C224.787 276.092 224.505 276.185 224.275 276.36C224.275 276.36 222.182 277.82 222.671 282.27C222.732 282.441 222.849 282.587 223.003 282.683C223.158 282.779 223.34 282.82 223.521 282.799C223.608 282.81 223.697 282.803 223.781 282.779C223.866 282.755 223.945 282.714 224.013 282.659C224.081 282.603 224.137 282.534 224.178 282.456C224.219 282.379 224.244 282.293 224.251 282.206C224.251 282.206 223.753 277.523 225.878 276.224Z" fill="white"/>
<path d="M228.364 275.823C228.364 275.823 228.179 275.591 227.642 275.703C226.961 275.839 226.84 276.136 226.84 276.136C226.84 276.136 225.55 278.148 226.263 281.789C226.263 281.789 226.319 282.422 227.193 282.31C228.067 282.198 227.803 281.508 227.803 281.508C227.803 281.508 227.169 276.817 228.364 275.823Z" fill="white"/>
<path d="M233.792 218.093C232.694 227.715 231.667 255.778 230.922 269.794C235.222 272.05 240.214 272.605 244.905 271.349L254.888 221.027L233.792 218.093Z" fill="#455A64"/>
<path d="M296.59 332.848C296.279 332.848 295.982 332.725 295.762 332.505C295.543 332.286 295.419 331.988 295.419 331.677V256.532C295.419 256.221 295.543 255.923 295.762 255.704C295.982 255.484 296.279 255.361 296.59 255.361C296.9 255.361 297.198 255.484 297.418 255.704C297.637 255.923 297.76 256.221 297.76 256.532V331.677C297.76 331.831 297.73 331.983 297.671 332.125C297.613 332.267 297.526 332.396 297.418 332.505C297.309 332.614 297.18 332.7 297.038 332.759C296.896 332.818 296.744 332.848 296.59 332.848V332.848Z" fill="#455A64"/>
<path d="M343.087 305.49C342.851 305.49 342.621 305.419 342.427 305.286C342.232 305.153 342.082 304.964 341.997 304.745L318.953 246.421C318.842 246.132 318.848 245.812 318.971 245.529C319.094 245.245 319.324 245.021 319.61 244.905C319.753 244.848 319.905 244.82 320.059 244.822C320.212 244.824 320.364 244.857 320.505 244.918C320.646 244.979 320.773 245.068 320.88 245.178C320.986 245.289 321.07 245.42 321.125 245.563L344.17 303.887C344.227 304.029 344.255 304.182 344.253 304.335C344.25 304.489 344.218 304.64 344.157 304.781C344.096 304.922 344.007 305.05 343.896 305.156C343.786 305.263 343.655 305.346 343.512 305.402C343.377 305.459 343.233 305.489 343.087 305.49V305.49Z" fill="#455A64"/>
<path d="M340.321 298.49C340.161 298.492 340.003 298.46 339.857 298.396C339.71 298.333 339.579 298.239 339.471 298.122L296.59 252.747L253.789 297.929C253.687 298.052 253.561 298.152 253.418 298.224C253.275 298.296 253.12 298.338 252.96 298.348C252.801 298.358 252.641 298.334 252.491 298.28C252.34 298.225 252.203 298.141 252.087 298.031C251.971 297.921 251.878 297.789 251.815 297.642C251.752 297.496 251.719 297.337 251.719 297.178C251.72 297.018 251.753 296.86 251.816 296.713C251.88 296.567 251.973 296.435 252.089 296.325L295.74 250.245C295.85 250.13 295.981 250.038 296.127 249.975C296.274 249.911 296.431 249.878 296.59 249.877V249.877C296.749 249.877 296.907 249.91 297.053 249.973C297.199 250.037 297.331 250.129 297.44 250.245L341.171 296.518C341.383 296.744 341.497 297.044 341.488 297.354C341.479 297.663 341.347 297.957 341.123 298.17C340.907 298.377 340.62 298.492 340.321 298.49V298.49Z" fill="#455A64"/>
<path d="M250.093 305.49C249.903 305.486 249.718 305.436 249.552 305.345C249.386 305.254 249.244 305.125 249.138 304.968C249.032 304.811 248.965 304.631 248.943 304.443C248.921 304.254 248.944 304.064 249.01 303.887L272.054 245.563C272.182 245.294 272.406 245.084 272.682 244.975C272.959 244.866 273.266 244.866 273.542 244.975C273.819 245.084 274.043 245.294 274.17 245.563C274.297 245.831 274.318 246.138 274.227 246.421L251.183 304.744C251.099 304.965 250.949 305.154 250.754 305.287C250.559 305.42 250.329 305.491 250.093 305.49V305.49Z" fill="#455A64"/>
<path d="M249.532 230.761C248.73 226.047 252.538 222.366 259.763 217.491C266.454 213.085 273.447 209.155 280.69 205.729C286.736 202.954 292.918 203.211 300.663 207.188C311.407 212.713 343.761 232.333 343.761 232.333C343.761 232.333 295.395 259.635 286.086 258.416C276.777 257.197 253.517 242.059 251.681 236.767C249.844 231.475 249.532 230.761 249.532 230.761Z" fill="#597b06"/>
<path d="M290.761 252.667C283.817 258.953 276.561 253.549 265.103 246.092C252.105 237.657 249.556 230.761 249.556 230.761C249.556 230.761 249.556 235.933 250.526 238.355C251.496 240.776 253.597 243.526 262.97 249.989C272.343 256.451 279.126 259.683 285.421 260.885L290.392 260.196" fill="#597b06"/>
<path opacity="0.5" d="M265.079 246.092C252.082 237.657 249.532 230.761 249.532 230.761C249.532 230.761 249.532 235.933 250.502 238.355C251.472 240.776 253.573 243.526 262.946 249.989C272.319 256.451 279.103 259.683 285.397 260.885L290.368 260.196L290.753 252.667C283.841 258.985 276.561 253.549 265.079 246.092Z" fill="black"/>
<path d="M341.499 296.67L344.546 304.688C344.554 304.758 344.554 304.828 344.546 304.897C344.554 304.945 344.554 304.993 344.546 305.041C344.463 305.261 344.3 305.442 344.089 305.546C343.803 305.693 343.485 305.769 343.163 305.769C342.841 305.769 342.524 305.693 342.237 305.546C342.078 305.464 341.951 305.332 341.876 305.169V305.057L339.054 297.52L341.499 296.67Z" fill="#597b06"/>
<path d="M251.688 296.67L248.642 304.688C248.63 304.757 248.63 304.828 248.642 304.897V305.041C248.73 305.258 248.892 305.437 249.099 305.546C249.387 305.693 249.705 305.769 250.029 305.769C250.352 305.769 250.671 305.693 250.959 305.546C251.116 305.462 251.242 305.33 251.32 305.169V305.169V305.057L254.142 297.52L251.688 296.67Z" fill="#597b06"/>
<path d="M297.937 325.864V332.511C297.927 332.63 297.886 332.744 297.816 332.842C297.747 332.939 297.653 333.016 297.544 333.065C297.248 333.215 296.922 333.293 296.59 333.293C296.258 333.293 295.931 333.215 295.636 333.065C295.528 333.015 295.435 332.937 295.366 332.84C295.297 332.743 295.254 332.63 295.243 332.511V325.864C295.657 325.643 296.12 325.527 296.59 325.527C297.06 325.527 297.522 325.643 297.937 325.864V325.864Z" fill="#597b06"/>
<path d="M328.582 212.063C328.582 212.063 289.783 200.357 283.031 198.512C276.28 196.668 263.347 193.549 259.57 195.249C255.794 196.949 253.869 198.905 253.517 204.358C253.445 205.384 253.517 210.379 253.517 210.379C253.517 210.379 273.169 218.397 288.54 218.397C303.911 218.397 328.582 212.063 328.582 212.063Z" fill="#37474F"/>
<path d="M328.743 207.204C331.148 215.511 331.95 223.641 326.121 229.655C321.895 234.017 304.351 249.572 288.981 244.889C271.798 239.621 251.296 224.708 251.296 224.708C251.296 224.708 238.034 225.117 237.961 221.22C237.961 220.266 233.776 219.087 233.824 218.053C234.361 206.619 242.051 201.864 253.517 203.941C265.544 206.122 292.445 213.787 292.445 213.787L328.743 207.204Z" fill="#455A64"/>
<path d="M309.499 241.794C312.386 231.234 315.849 217.836 315.849 217.836L299.998 222.831C296.718 233.199 295.058 238.828 286.872 237.497C278.685 236.166 251.24 224.668 251.24 224.668C251.24 224.668 271.75 239.581 288.925 244.849C295.868 246.958 303.157 244.986 309.499 241.794Z" fill="#37474F"/>
<path d="M302.772 151.975C299.148 150.612 295.836 151.879 286.92 155.11C276.496 158.887 264.557 163.201 264.557 163.201L251.023 136.035C249.315 132.379 248.048 129.95 244.969 127.352C243.607 126.619 242.089 126.226 240.543 126.205C235.805 126.382 226.616 131.249 231.443 135.963C234.313 138.762 239.268 139.884 241.986 141.576C243.43 142.482 244.183 144.783 244.809 146.483C247.543 154.044 252.522 169.735 253.829 173.199C255.248 176.928 258.64 177.962 263.307 176.896C270.138 175.34 301.152 166.905 301.152 166.905L302.772 151.975Z" fill="#9C7248"/>
<path d="M240.543 132.547L232.269 136.693C232.527 136.838 232.765 137.019 232.974 137.23L237.625 135.45C239.14 134.881 241 134.071 241 134.071C241 134.071 244.464 134.504 246.14 133.734C247.816 132.964 240.543 132.547 240.543 132.547Z" fill="#C98276"/>
<path d="M302.772 151.238C302.772 151.238 301.497 149.867 295.355 151.47C289.213 153.074 275.198 158.759 275.198 158.759C275.198 158.759 269.088 165.863 277.082 174.386L300.03 168.38L302.772 159.496V151.238Z" fill="#455A64"/>
<path d="M331.148 159.817C329.865 155.6 326.746 151.919 321.663 151.47C320.42 151.679 318.303 151.879 317.124 152.08C315.048 153.098 309.595 153.579 302.78 151.975C300.486 152.549 298.365 153.668 296.598 155.239C292.701 158.614 290.384 163.714 288.203 179.55C288.203 179.55 285.26 204.406 285.068 211.622C289.815 225.325 312.53 224.972 319.185 222.358C333.104 216.898 333.489 208.343 333.489 208.343C333.489 208.343 333.185 187.255 333.008 175.677C332.848 165.839 332.014 162.704 331.148 159.817Z" fill="#F5F5F5"/>
<path d="M324.285 155.11C323.138 154.685 317.589 160.226 317.589 160.226C317.589 160.226 315.184 168.461 317.91 175.1C320.636 181.739 321.438 184.032 321.438 184.032C321.438 184.032 309.948 190.182 305.049 205.929C302.732 213.386 301.096 218.991 300.022 222.831C307.535 224.507 315.633 223.761 319.177 222.366C333.096 216.906 333.481 208.351 333.481 208.351C333.481 208.351 333.177 187.263 333 175.685C332.96 173.079 332.872 170.954 332.752 169.174C328.855 162.239 324.862 155.319 324.285 155.11Z" fill="#E0E0E0"/>
<path d="M223.777 138.713C223.811 138.745 223.854 138.765 223.9 138.773C223.945 138.78 223.992 138.773 224.034 138.753L225.782 137.791C225.822 137.761 225.85 137.717 225.86 137.668C225.87 137.619 225.863 137.568 225.838 137.524C225.814 137.48 225.774 137.447 225.727 137.429C225.68 137.412 225.628 137.413 225.581 137.431L223.834 138.385C223.809 138.397 223.788 138.415 223.77 138.436C223.753 138.457 223.74 138.481 223.733 138.508C223.725 138.534 223.723 138.561 223.727 138.589C223.73 138.616 223.739 138.642 223.753 138.665L223.777 138.713Z" fill="#263238"/>
<path d="M229.919 137.912L225.437 138.513C225.292 138.533 225.145 138.506 225.015 138.438C224.886 138.369 224.782 138.262 224.717 138.13C224.653 137.999 224.631 137.851 224.655 137.707C224.679 137.562 224.748 137.429 224.852 137.326L228.059 134.119L229.919 137.912Z" fill="#597b06"/>
<g opacity="0.2">
<path opacity="0.2" d="M229.919 137.912L225.437 138.513C225.292 138.533 225.145 138.506 225.015 138.438C224.886 138.369 224.782 138.262 224.717 138.13C224.653 137.999 224.631 137.851 224.655 137.707C224.679 137.562 224.748 137.429 224.852 137.326L228.059 134.119L229.919 137.912Z" fill="black"/>
</g>
<path d="M251.488 122.421C251.698 122.354 251.923 122.352 252.134 122.417C252.345 122.481 252.53 122.609 252.667 122.781C253.621 123.72 254.15 125.933 253.06 126.366L229.919 137.912C229.492 137.774 229.104 137.534 228.789 137.213C228.475 136.891 228.244 136.498 228.115 136.067C227.851 135.44 227.834 134.735 228.067 134.095L251.488 122.421Z" fill="#597b06"/>
<g opacity="0.5">
<path opacity="0.5" d="M251.488 122.421C251.698 122.354 251.923 122.352 252.134 122.417C252.345 122.481 252.53 122.609 252.667 122.781C253.621 123.72 254.15 125.933 253.06 126.366L229.919 137.912C229.492 137.774 229.104 137.534 228.789 137.213C228.475 136.891 228.244 136.498 228.115 136.067C227.851 135.44 227.834 134.735 228.067 134.095L251.488 122.421Z" fill="black"/>
</g>
<path d="M254.214 122.429C254.427 122.322 254.674 122.303 254.9 122.377C255.127 122.45 255.315 122.61 255.425 122.821C255.479 122.926 255.511 123.04 255.521 123.158C255.53 123.275 255.516 123.393 255.479 123.505C255.443 123.617 255.385 123.72 255.308 123.809C255.231 123.898 255.137 123.972 255.032 124.024L253.172 124.946C253.098 124.976 253.018 124.985 252.939 124.974C252.86 124.963 252.786 124.931 252.723 124.882C252.545 124.75 252.401 124.578 252.303 124.381C252.204 124.183 252.153 123.965 252.154 123.744C252.149 123.664 252.166 123.585 252.203 123.514C252.239 123.444 252.294 123.384 252.362 123.343L254.214 122.429Z" fill="#37474F"/>
<path d="M243.101 126.59C242.549 126.131 241.959 125.721 241.337 125.363C240.421 124.8 239.397 124.436 238.33 124.297C237.927 124.229 237.512 124.268 237.128 124.409C236.755 124.601 236.419 124.856 236.133 125.163C234.53 126.646 232.309 127.135 230.713 128.595C229.302 129.893 226.945 134.063 227.883 135.45C228.468 136.316 230.401 134.961 231.299 133.806C231.299 134.865 232.902 134.825 234.402 133.004C235.676 131.481 237.2 129.452 237.2 129.452L243.101 126.59Z" fill="#9C7248"/>
<path d="M237.336 127.6C237.121 127.686 236.933 127.827 236.792 128.011C236.65 128.194 236.562 128.413 236.534 128.643C236.463 129.137 236.504 129.642 236.655 130.118L237.184 129.42L237.336 127.6Z" fill="#876127"/>
<path d="M251.023 136.035C249.604 133.085 249.692 130.591 247.014 129.444C244.336 128.298 243.005 128.643 239.886 127.6C235.46 126.117 236.558 130.487 240.159 132.339C243.759 134.191 246.188 133.734 246.188 133.734C246.188 133.734 248.345 139.804 251.023 136.035Z" fill="#9C7248"/>
<path d="M323.186 117.305C321.582 114.779 320.043 115.156 320.043 115.156L319.674 118.059C315.256 112.655 303.638 107.691 298.506 107.691C292.092 107.691 286.896 113.104 286.896 119.783C286.896 126.462 292.1 131.874 298.506 131.874C303.269 131.874 313.588 130.166 318.6 126.558L318.215 129.549L317.116 129.42L317.196 144.414C317.196 144.414 319.69 143.813 320.548 142.105C321.406 140.397 322.713 130.078 322.713 130.078C324.894 124.353 324.573 119.47 323.186 117.305Z" fill="#263238"/>
<path opacity="0.5" d="M323.186 117.305C321.583 114.779 320.043 115.156 320.043 115.156L319.674 118.059L318.6 126.558L318.215 129.549L317.116 129.42L317.197 144.414C317.197 144.414 319.69 143.813 320.548 142.105C321.406 140.397 322.713 130.078 322.713 130.078C324.894 124.353 324.573 119.47 323.186 117.305Z" fill="black"/>
<path opacity="0.6" d="M298.506 107.691C292.092 107.691 286.896 113.104 286.896 119.783C286.896 126.462 292.1 131.874 298.506 131.874C303.269 131.874 313.588 130.166 318.6 126.558L319.674 118.059C315.256 112.655 303.638 107.691 298.506 107.691Z" fill="black"/>
<path d="M317.517 130.543C318.319 131.048 318.76 129.316 319.746 128.242C320.733 127.167 323.619 125.772 325.64 129.316C327.66 132.86 324.036 137.222 322.288 137.88C318.88 139.138 317.285 137.078 317.285 137.078L317.132 152.104C312.682 156 299.388 155.872 302.7 153.234V148.111C302.7 148.111 298.691 148.736 296.782 148.423C293.575 147.902 291.531 145.216 290.552 141.616C288.949 135.771 288.379 131.056 289.751 119.566C291.21 106.978 305.274 106.849 312.867 111.821C320.46 116.792 317.517 130.543 317.517 130.543Z" fill="#9C7248"/>
<path d="M324.894 113.055C324.748 112.72 324.534 112.418 324.265 112.169C323.996 111.921 323.679 111.731 323.333 111.612C322.986 111.492 322.619 111.447 322.254 111.477C321.89 111.508 321.535 111.614 321.214 111.789C320.863 111.99 320.56 112.263 320.324 112.59C320.155 111.301 319.596 110.095 318.72 109.135C316.828 106.954 313.652 106.729 308.24 105.831C306.082 105.564 303.94 105.176 301.826 104.668C299.629 104.051 297.464 102.584 295.411 101.549C294.771 101.126 294 100.947 293.238 101.044C292.889 101.169 292.578 101.382 292.336 101.663C292.094 101.944 291.93 102.284 291.859 102.648C291.718 103.367 291.704 104.105 291.819 104.829C290.56 103.442 288.115 103.65 286.832 105.005C286.226 105.723 285.831 106.594 285.689 107.522C285.548 108.45 285.666 109.4 286.03 110.265C286.795 111.984 288.061 113.432 289.662 114.419C296.47 119.013 304.496 117.738 312.113 116.824C312.476 116.751 312.853 116.776 313.203 116.896C314.39 117.441 314.647 121.146 314.855 122.212C315.561 125.82 316.146 131.938 317.501 131.962C317.91 131.962 318.736 129.196 319.73 128.25C320.933 127.111 320.291 118.163 320.091 115.766L324.894 113.055Z" fill="#263238"/>
<path opacity="0.5" d="M324.894 113.055C324.748 112.72 324.534 112.418 324.265 112.169C323.996 111.921 323.679 111.731 323.333 111.612C322.986 111.492 322.619 111.447 322.254 111.477C321.89 111.508 321.535 111.614 321.214 111.789C320.863 111.99 320.56 112.263 320.324 112.59C320.155 111.301 319.596 110.095 318.72 109.135C316.828 106.954 313.652 106.729 308.24 105.831C306.082 105.564 303.94 105.176 301.826 104.668C299.629 104.051 297.464 102.584 295.411 101.549C294.771 101.126 294 100.947 293.238 101.044C292.889 101.169 292.578 101.382 292.336 101.663C292.094 101.944 291.93 102.284 291.859 102.648C291.718 103.367 291.704 104.105 291.819 104.829C290.56 103.442 288.115 103.65 286.832 105.005C286.226 105.723 285.831 106.594 285.689 107.522C285.548 108.45 285.666 109.4 286.03 110.265C286.795 111.984 288.061 113.432 289.662 114.419C296.47 119.013 304.496 117.738 312.113 116.824C312.476 116.751 312.853 116.776 313.203 116.896C314.39 117.441 314.647 121.146 314.855 122.212C315.561 125.82 316.146 131.938 317.501 131.962C317.91 131.962 318.736 129.196 319.73 128.25C320.933 127.111 320.291 118.163 320.091 115.766L324.894 113.055Z" fill="black"/>
<path d="M302.676 148.079C302.676 148.079 309.892 146.571 312.394 145.176C313.887 144.357 315.099 143.109 315.874 141.592C315.496 143.116 314.823 144.552 313.893 145.817C312.049 148.271 302.668 150.075 302.668 150.075L302.676 148.079Z" fill="#876127"/>
<path d="M305.274 128.242C305.295 128.523 305.399 128.792 305.571 129.016C305.744 129.24 305.978 129.408 306.245 129.501C306.511 129.593 306.8 129.606 307.073 129.537C307.347 129.469 307.595 129.321 307.787 129.114C307.978 128.906 308.105 128.647 308.152 128.369C308.198 128.09 308.163 127.804 308.049 127.546C307.936 127.287 307.749 127.067 307.512 126.913C307.276 126.759 306.999 126.678 306.717 126.678C306.319 126.697 305.945 126.872 305.675 127.164C305.405 127.457 305.26 127.844 305.274 128.242V128.242Z" fill="#263238"/>
<path d="M307.759 121.996L310.846 123.768C311.065 123.328 311.112 122.822 310.978 122.35C310.845 121.877 310.541 121.471 310.125 121.21C309.92 121.095 309.694 121.024 309.46 121.001C309.227 120.979 308.991 121.005 308.768 121.079C308.545 121.153 308.341 121.273 308.167 121.431C307.993 121.589 307.854 121.781 307.759 121.996V121.996Z" fill="#263238"/>
<path d="M305.554 138.489L300.952 140.317C301.042 140.634 301.197 140.929 301.406 141.183C301.615 141.438 301.874 141.647 302.167 141.797C302.461 141.948 302.782 142.036 303.11 142.058C303.439 142.079 303.769 142.032 304.079 141.921C304.718 141.647 305.228 141.138 305.502 140.5C305.777 139.861 305.796 139.141 305.554 138.489V138.489Z" fill="#C98276"/>
<path d="M290.865 123.479L294.072 121.875C293.992 121.656 293.866 121.456 293.703 121.288C293.54 121.12 293.344 120.989 293.127 120.902C292.91 120.815 292.677 120.775 292.444 120.783C292.21 120.792 291.981 120.85 291.771 120.953C291.335 121.188 291 121.576 290.833 122.042C290.666 122.509 290.677 123.02 290.865 123.479V123.479Z" fill="#263238"/>
<path d="M292.469 128.242C292.46 128.439 292.491 128.636 292.559 128.821C292.627 129.006 292.731 129.176 292.865 129.321C293 129.466 293.161 129.582 293.341 129.664C293.521 129.746 293.715 129.791 293.912 129.797C294.236 129.83 294.562 129.763 294.847 129.605C295.132 129.448 295.363 129.207 295.508 128.915C295.653 128.624 295.705 128.295 295.659 127.973C295.612 127.65 295.469 127.35 295.247 127.111C295.026 126.872 294.737 126.707 294.419 126.636C294.101 126.566 293.769 126.594 293.467 126.716C293.166 126.839 292.909 127.051 292.73 127.323C292.552 127.596 292.461 127.916 292.469 128.242Z" fill="#263238"/>
<path d="M300.094 127.095L300.952 136.172L295.676 135.57L300.094 127.095Z" fill="#876127"/>
<path d="M306.532 124.521C305.545 124.566 304.613 124.99 303.931 125.705C303.248 126.42 302.867 127.37 302.867 128.358C302.867 129.346 303.248 130.296 303.931 131.011C304.613 131.726 305.545 132.15 306.532 132.195H307.238C308.225 132.15 309.157 131.726 309.84 131.011C310.522 130.296 310.903 129.346 310.903 128.358C310.903 127.37 310.522 126.42 309.84 125.705C309.157 124.99 308.225 124.566 307.238 124.521H306.532ZM307.238 132.98H306.532C305.308 132.98 304.133 132.494 303.267 131.628C302.401 130.762 301.914 129.587 301.914 128.362C301.914 127.137 302.401 125.962 303.267 125.096C304.133 124.23 305.308 123.744 306.532 123.744H307.238C308.463 123.744 309.638 124.23 310.504 125.096C311.37 125.962 311.857 127.137 311.857 128.362C311.857 129.587 311.37 130.762 310.504 131.628C309.638 132.494 308.463 132.98 307.238 132.98V132.98Z" fill="#263238"/>
<path d="M292.725 124.521C291.738 124.566 290.806 124.99 290.124 125.705C289.441 126.42 289.06 127.37 289.06 128.358C289.06 129.346 289.441 130.296 290.124 131.011C290.806 131.726 291.738 132.15 292.725 132.195H293.463C294.45 132.15 295.382 131.726 296.065 131.011C296.747 130.296 297.128 129.346 297.128 128.358C297.128 127.37 296.747 126.42 296.065 125.705C295.382 124.99 294.45 124.566 293.463 124.521H292.725ZM293.423 132.98H292.725C291.535 132.931 290.41 132.423 289.585 131.563C288.76 130.703 288.299 129.558 288.299 128.366C288.299 127.174 288.76 126.029 289.585 125.169C290.41 124.309 291.535 123.801 292.725 123.752H293.463C294.688 123.752 295.863 124.238 296.729 125.104C297.595 125.97 298.081 127.145 298.081 128.37C298.081 129.595 297.595 130.77 296.729 131.636C295.863 132.502 294.688 132.988 293.463 132.988L293.423 132.98Z" fill="#263238"/>
<path d="M302.058 127.488C301.784 127.106 301.423 126.794 301.005 126.578C300.587 126.362 300.123 126.248 299.653 126.245C299.266 126.2 298.875 126.25 298.512 126.39C298.149 126.529 297.825 126.755 297.568 127.047L296.959 126.582C297.286 126.184 297.707 125.873 298.185 125.679C298.662 125.484 299.18 125.412 299.693 125.467C300.286 125.475 300.868 125.624 301.392 125.903C301.915 126.182 302.363 126.583 302.7 127.071L302.058 127.488Z" fill="#263238"/>
<path d="M320.075 127.921H311.375V127.191H321.438C320.943 127.35 320.482 127.597 320.075 127.921V127.921Z" fill="#263238"/>
<path d="M290.376 260.196C294.329 259.995 297.424 257.093 306.829 253.172C324.188 245.956 337.202 240.159 342.165 231.066C347.128 221.973 350.64 195.722 349.381 184.36C349.26 183.073 348.974 181.807 348.531 180.592L349.75 180.416L346.591 177.721C343.384 175.068 338.068 177.433 334.091 179.598C322.721 185.78 313.837 191.793 306.829 213.49C301.537 229.815 298.057 244.697 290.793 252.659" fill="#597b06"/>
<path opacity="0.3" d="M348.547 180.592L349.766 180.416L346.607 177.721C343.4 175.068 338.084 177.433 334.107 179.598C322.737 185.78 313.853 191.793 306.845 213.49C301.553 229.815 298.073 244.697 290.809 252.659L290.424 260.188C294.377 259.987 297.472 257.085 306.877 253.164C324.236 245.948 337.25 240.151 342.213 231.058C347.176 221.965 350.688 195.714 349.429 184.352C349.297 183.067 349 181.803 348.547 180.592Z" fill="black"/>
<path d="M337.394 182.404C326.032 188.586 317.148 194.592 310.133 216.289C303.117 237.986 299.268 257.181 285.421 260.885C285.421 260.885 291.683 263.371 310.862 255.273C316.972 252.691 324.381 247.984 329.24 245.25C338.781 239.902 344.562 235.516 345.476 233.872C350.512 224.828 353.944 198.537 352.693 187.167C351.442 175.797 343.087 179.301 337.394 182.404Z" fill="#597b06"/>
<path opacity="0.1" d="M327.211 188.819L328.815 192.587L324.693 215.96C323.715 217.772 320.58 219.48 319.081 221.701C318.019 223.21 317.068 224.794 316.234 226.44C315.721 227.578 315.304 230.449 317.838 228.749C319.931 227.322 321.374 225.133 321.935 224.916C322.344 224.756 322.152 226.664 322.136 226.8C321.783 229.695 320.139 232.63 318.704 235.107C318.014 236.302 316.587 238.194 318.111 239.293C318.516 239.554 318.956 239.756 319.418 239.894C321.02 240.484 322.764 240.577 324.42 240.161C326.077 239.744 327.569 238.838 328.703 237.561C331.677 234.105 332.712 229.711 333.129 225.253C333.647 219.847 334.79 214.519 336.536 209.377C339.19 201.648 341.804 189.572 341.347 187.52C341.187 186.846 340.265 184.537 339.03 181.578C338.493 181.851 337.963 182.123 337.426 182.38C333.846 184.235 330.429 186.389 327.211 188.819V188.819Z" fill="#37474F"/>
<path d="M343.36 186.678C342.798 184.32 332.776 161.613 332.776 161.613L321.358 169.022L330.859 191.745L326.738 215.126C325.76 216.93 322.625 218.646 321.125 220.867C320.064 222.374 319.113 223.955 318.279 225.598C317.766 226.736 317.349 229.607 319.883 227.915C321.975 226.48 323.419 224.299 323.98 224.074C324.389 223.914 324.196 225.83 324.18 225.967C323.828 228.853 322.184 231.788 320.749 234.265C320.059 235.46 318.632 237.36 320.155 238.451C320.558 238.716 320.999 238.918 321.462 239.052C323.064 239.644 324.807 239.739 326.464 239.324C328.121 238.909 329.613 238.004 330.747 236.727C333.722 233.271 334.756 228.869 335.173 224.411C335.693 219.005 336.836 213.678 338.581 208.535C341.235 200.806 343.849 188.73 343.36 186.678Z" fill="#9C7248"/>
<path d="M321.655 151.47C325.559 151.222 328.069 152.007 330.996 156.786C333.922 161.565 341.491 178.13 341.491 178.13C341.491 178.13 339.294 184.144 326.738 186.678L319.177 170.642C319.177 170.642 314.31 156.955 321.655 151.47Z" fill="#455A64"/>
<g clip-path="url(#clip0)">
<path d="M208.053 52.4468L198.675 57.6988L198.228 68.4897L207.606 63.2377L208.053 52.4468ZM205.82 62.1299L200.193 65.2811L200.461 58.8066L206.088 55.6554L205.82 62.1299Z" fill="black"/>
<path d="M204.123 58.864L202.247 59.9144L202.158 62.0726L204.034 61.0222L204.123 58.864Z" fill="black"/>
<path d="M219.307 46.1444L218.86 56.9354L228.238 51.6834L228.685 40.8924L219.307 46.1444ZM226.452 50.5756L220.825 53.7268L221.093 47.2522L226.72 44.101L226.452 50.5756Z" fill="black"/>
<path d="M224.755 47.3096L222.879 48.36L222.79 50.5182L224.665 49.4678L224.755 47.3096Z" fill="black"/>
<path d="M197.246 92.2298L206.624 86.9778L207.07 76.1868L197.692 81.4388L197.246 92.2298ZM199.478 82.5466L205.105 79.3954L204.837 85.87L199.21 89.0212L199.478 82.5466Z" fill="black"/>
<path d="M203.141 82.604L201.265 83.6544L201.176 85.8126L203.051 84.7622L203.141 82.604Z" fill="black"/>
<path d="M217.431 47.1948L213.68 49.2956L213.59 51.4538L217.342 49.353L217.431 47.1948Z" fill="black"/>
<path d="M213.322 57.9283L215.198 56.8779L215.287 54.7197L217.163 53.6693L217.252 51.5112L211.625 54.6624L211.715 52.5042L209.839 53.5546L209.75 55.7128L209.705 56.7918L209.66 57.8709L213.412 55.7701L213.322 57.9283Z" fill="black"/>
<path d="M211.447 58.9788L209.571 60.0292L209.482 62.1874L211.358 61.137L211.447 58.9788Z" fill="black"/>
<path d="M216.984 57.9857L215.109 59.0361L215.019 61.1943L209.393 64.3455L209.303 66.5037L216.806 62.3021L216.984 57.9857Z" fill="black"/>
<path d="M199.747 76.0721L201.622 75.0217L201.712 72.8635L199.836 73.9139L200.015 69.5975L198.139 70.6479L197.782 79.2807L199.657 78.2303L199.747 76.0721Z" fill="black"/>
<path d="M203.766 67.4967L201.89 68.5471L201.801 70.7053L203.676 69.6549L203.766 67.4967Z" fill="black"/>
<path d="M209.035 72.9783L212.786 70.8775L212.876 68.7193L211 69.7697L211.089 67.6115L207.338 69.7123L207.517 65.3959L205.641 66.4463L205.463 70.7627L203.587 71.8131L203.408 76.1295L205.284 75.0791L205.373 72.9209L206.311 72.3957L207.249 71.8705L209.125 70.8201L209.035 72.9783Z" fill="black"/>
<path d="M216.716 64.4603L214.841 65.5107L214.662 69.8271L216.538 68.7767L216.716 64.4603Z" fill="black"/>
<path d="M214.573 71.9853L208.946 75.1365L208.857 77.2947L212.608 75.1939L212.34 81.6684L208.589 83.7692L208.499 85.9274L214.126 82.7762L214.216 80.618L217.967 78.5172L218.056 76.359L214.305 78.4598L214.573 71.9853Z" fill="black"/>
<path d="M210.643 78.4024L208.767 79.4528L208.678 81.611L210.554 80.5606L210.643 78.4024Z" fill="black"/>
<path d="M218.324 69.8845L216.448 70.9349L216.27 75.2513L218.145 74.2009L218.324 69.8845Z" fill="black"/>
<path d="M225.648 69.9993L220.021 73.1505L219.753 79.625L221.629 78.5746L221.807 74.2582L225.559 72.1574L225.648 69.9993Z" fill="black"/>
<path d="M227.345 73.2652L223.594 75.366L223.504 77.5242L227.256 75.4234L227.345 73.2652Z" fill="black"/>
<path d="M227.702 64.6325L225.827 65.6829L225.737 67.841L227.613 66.7907L227.702 64.6325Z" fill="black"/>
<path d="M220.11 70.9923L221.986 69.9419L222.254 63.4673L218.503 65.5681L218.413 67.7263L220.289 66.6759L220.11 70.9923Z" fill="black"/>
<path d="M224.308 58.1005L222.433 59.1509L222.522 56.9927L220.646 58.0431L220.557 60.2013L218.681 61.2517L218.592 63.4099L226.095 59.2083L226.184 57.0501L228.06 55.9997L228.149 53.8415L224.398 55.9423L224.308 58.1005Z" fill="black"/>
<path d="M227.881 60.3161L224.13 62.4169L224.04 64.5751L227.792 62.4743L227.881 60.3161Z" fill="black"/>
</g>
<defs>
<clipPath id="clip0">
<rect width="34.3955" height="34.5606" fill="white" transform="matrix(0.872496 -0.488621 -0.0413525 0.999145 198.675 57.6988)"/>
</clipPath>
</defs>
</svg>
